%TF.GenerationSoftware,KiCad,Pcbnew,9.0.7*%
%TF.CreationDate,2026-02-19T13:57:54-05:00*%
%TF.ProjectId,OrganUnifiedSoundboard,4f726761-6e55-46e6-9966-696564536f75,rev?*%
%TF.SameCoordinates,Original*%
%TF.FileFunction,Paste,Bot*%
%TF.FilePolarity,Positive*%
%FSLAX46Y46*%
G04 Gerber Fmt 4.6, Leading zero omitted, Abs format (unit mm)*
G04 Created by KiCad (PCBNEW 9.0.7) date 2026-02-19 13:57:54*
%MOMM*%
%LPD*%
G01*
G04 APERTURE LIST*
G04 Aperture macros list*
%AMRoundRect*
0 Rectangle with rounded corners*
0 $1 Rounding radius*
0 $2 $3 $4 $5 $6 $7 $8 $9 X,Y pos of 4 corners*
0 Add a 4 corners polygon primitive as box body*
4,1,4,$2,$3,$4,$5,$6,$7,$8,$9,$2,$3,0*
0 Add four circle primitives for the rounded corners*
1,1,$1+$1,$2,$3*
1,1,$1+$1,$4,$5*
1,1,$1+$1,$6,$7*
1,1,$1+$1,$8,$9*
0 Add four rect primitives between the rounded corners*
20,1,$1+$1,$2,$3,$4,$5,0*
20,1,$1+$1,$4,$5,$6,$7,0*
20,1,$1+$1,$6,$7,$8,$9,0*
20,1,$1+$1,$8,$9,$2,$3,0*%
G04 Aperture macros list end*
%ADD10RoundRect,0.250000X-0.312500X-1.450000X0.312500X-1.450000X0.312500X1.450000X-0.312500X1.450000X0*%
%ADD11RoundRect,0.250000X-1.000000X-0.650000X1.000000X-0.650000X1.000000X0.650000X-1.000000X0.650000X0*%
%ADD12RoundRect,0.200000X0.200000X0.275000X-0.200000X0.275000X-0.200000X-0.275000X0.200000X-0.275000X0*%
%ADD13RoundRect,0.150000X0.150000X-0.512500X0.150000X0.512500X-0.150000X0.512500X-0.150000X-0.512500X0*%
G04 APERTURE END LIST*
D10*
%TO.C,F1*%
X240559500Y-67691000D03*
X244834500Y-67691000D03*
%TD*%
D11*
%TO.C,D1*%
X231934000Y-68072000D03*
X235934000Y-68072000D03*
%TD*%
D12*
%TO.C,RS_CLR1*%
X79001200Y-78986300D03*
X77351200Y-78986300D03*
%TD*%
%TO.C,RS_MOSI1*%
X79001200Y-72534700D03*
X77351200Y-72534700D03*
%TD*%
%TO.C,RS_LATCH1*%
X79001200Y-75760500D03*
X77351200Y-75760500D03*
%TD*%
%TO.C,RS_OE_N1*%
X79001200Y-74147600D03*
X77351200Y-74147600D03*
%TD*%
%TO.C,RS_SCK1*%
X79001200Y-77373400D03*
X77351200Y-77373400D03*
%TD*%
D13*
%TO.C,D15*%
X149674554Y-94583293D03*
X147774554Y-94583293D03*
X147774554Y-96858293D03*
X148724554Y-96858293D03*
X149674554Y-96858293D03*
%TD*%
%TO.C,D14*%
X144553914Y-94583293D03*
X142653914Y-94583293D03*
X142653914Y-96858293D03*
X143603914Y-96858293D03*
X144553914Y-96858293D03*
%TD*%
%TO.C,D19*%
X170157114Y-94583293D03*
X168257114Y-94583293D03*
X168257114Y-96858293D03*
X169207114Y-96858293D03*
X170157114Y-96858293D03*
%TD*%
%TO.C,D18*%
X165036474Y-94583293D03*
X163136474Y-94583293D03*
X163136474Y-96858293D03*
X164086474Y-96858293D03*
X165036474Y-96858293D03*
%TD*%
%TO.C,D17*%
X159915834Y-94583293D03*
X158015834Y-94583293D03*
X158015834Y-96858293D03*
X158965834Y-96858293D03*
X159915834Y-96858293D03*
%TD*%
%TO.C,D16*%
X154795194Y-94583293D03*
X152895194Y-94583293D03*
X152895194Y-96858293D03*
X153845194Y-96858293D03*
X154795194Y-96858293D03*
%TD*%
%TO.C,D12*%
X184722614Y-94583293D03*
X182822614Y-94583293D03*
X182822614Y-96858293D03*
X183772614Y-96858293D03*
X184722614Y-96858293D03*
%TD*%
%TO.C,D22*%
X119103114Y-94583293D03*
X117203114Y-94583293D03*
X117203114Y-96858293D03*
X118153114Y-96858293D03*
X119103114Y-96858293D03*
%TD*%
%TO.C,D23*%
X124183114Y-94583293D03*
X122283114Y-94583293D03*
X122283114Y-96858293D03*
X123233114Y-96858293D03*
X124183114Y-96858293D03*
%TD*%
%TO.C,D24*%
X129263114Y-96858293D03*
X128313114Y-96858293D03*
X127363114Y-96858293D03*
X127363114Y-94583293D03*
X129263114Y-94583293D03*
%TD*%
%TO.C,D21*%
X114023114Y-96858293D03*
X113073114Y-96858293D03*
X112123114Y-96858293D03*
X112123114Y-94583293D03*
X114023114Y-94583293D03*
%TD*%
%TO.C,D20*%
X108943114Y-96858293D03*
X107993114Y-96858293D03*
X107043114Y-96858293D03*
X107043114Y-94583293D03*
X108943114Y-94583293D03*
%TD*%
%TO.C,D13*%
X98783114Y-96858293D03*
X97833114Y-96858293D03*
X96883114Y-96858293D03*
X96883114Y-94583293D03*
X98783114Y-94583293D03*
%TD*%
%TO.C,D11*%
X189830364Y-96858293D03*
X188880364Y-96858293D03*
X187930364Y-96858293D03*
X187930364Y-94583293D03*
X189830364Y-94583293D03*
%TD*%
%TO.C,D10*%
X194938114Y-96858293D03*
X193988114Y-96858293D03*
X193038114Y-96858293D03*
X193038114Y-94583293D03*
X194938114Y-94583293D03*
%TD*%
%TO.C,D9*%
X200045864Y-96858293D03*
X199095864Y-96858293D03*
X198145864Y-96858293D03*
X198145864Y-94583293D03*
X200045864Y-94583293D03*
%TD*%
%TO.C,D8*%
X205153614Y-96858293D03*
X204203614Y-96858293D03*
X203253614Y-96858293D03*
X203253614Y-94583293D03*
X205153614Y-94583293D03*
%TD*%
%TO.C,D7*%
X210261364Y-96858293D03*
X209311364Y-96858293D03*
X208361364Y-96858293D03*
X208361364Y-94583293D03*
X210261364Y-94583293D03*
%TD*%
%TO.C,D6*%
X215369114Y-96858293D03*
X214419114Y-96858293D03*
X213469114Y-96858293D03*
X213469114Y-94583293D03*
X215369114Y-94583293D03*
%TD*%
%TO.C,D5*%
X103863114Y-96858293D03*
X102913114Y-96858293D03*
X101963114Y-96858293D03*
X101963114Y-94583293D03*
X103863114Y-94583293D03*
%TD*%
M02*
