%TF.GenerationSoftware,KiCad,Pcbnew,9.0.7*%
%TF.CreationDate,2026-02-19T13:57:54-05:00*%
%TF.ProjectId,OrganUnifiedSoundboard,4f726761-6e55-46e6-9966-696564536f75,rev?*%
%TF.SameCoordinates,Original*%
%TF.FileFunction,Legend,Bot*%
%TF.FilePolarity,Positive*%
%FSLAX46Y46*%
G04 Gerber Fmt 4.6, Leading zero omitted, Abs format (unit mm)*
G04 Created by KiCad (PCBNEW 9.0.7) date 2026-02-19 13:57:54*
%MOMM*%
%LPD*%
G01*
G04 APERTURE LIST*
%ADD10C,0.160000*%
%ADD11C,0.508000*%
%ADD12C,0.120000*%
G04 APERTURE END LIST*
D10*
X242903333Y-64827489D02*
X243236666Y-64827489D01*
X243236666Y-65351299D02*
X243236666Y-64351299D01*
X243236666Y-64351299D02*
X242760476Y-64351299D01*
X241855714Y-65351299D02*
X242427142Y-65351299D01*
X242141428Y-65351299D02*
X242141428Y-64351299D01*
X242141428Y-64351299D02*
X242236666Y-64494156D01*
X242236666Y-64494156D02*
X242331904Y-64589394D01*
X242331904Y-64589394D02*
X242427142Y-64637013D01*
X243151299Y-70072857D02*
X242151299Y-70072857D01*
X242151299Y-70072857D02*
X242865584Y-70406190D01*
X242865584Y-70406190D02*
X242151299Y-70739523D01*
X242151299Y-70739523D02*
X243151299Y-70739523D01*
X242627489Y-71549047D02*
X242627489Y-71215714D01*
X243151299Y-71215714D02*
X242151299Y-71215714D01*
X242151299Y-71215714D02*
X242151299Y-71691904D01*
X242770346Y-72072857D02*
X242770346Y-72834762D01*
X243151299Y-73310952D02*
X242151299Y-73310952D01*
X242151299Y-73310952D02*
X242865584Y-73644285D01*
X242865584Y-73644285D02*
X242151299Y-73977618D01*
X242151299Y-73977618D02*
X243151299Y-73977618D01*
X243103680Y-74406190D02*
X243151299Y-74549047D01*
X243151299Y-74549047D02*
X243151299Y-74787142D01*
X243151299Y-74787142D02*
X243103680Y-74882380D01*
X243103680Y-74882380D02*
X243056060Y-74929999D01*
X243056060Y-74929999D02*
X242960822Y-74977618D01*
X242960822Y-74977618D02*
X242865584Y-74977618D01*
X242865584Y-74977618D02*
X242770346Y-74929999D01*
X242770346Y-74929999D02*
X242722727Y-74882380D01*
X242722727Y-74882380D02*
X242675108Y-74787142D01*
X242675108Y-74787142D02*
X242627489Y-74596666D01*
X242627489Y-74596666D02*
X242579870Y-74501428D01*
X242579870Y-74501428D02*
X242532251Y-74453809D01*
X242532251Y-74453809D02*
X242437013Y-74406190D01*
X242437013Y-74406190D02*
X242341775Y-74406190D01*
X242341775Y-74406190D02*
X242246537Y-74453809D01*
X242246537Y-74453809D02*
X242198918Y-74501428D01*
X242198918Y-74501428D02*
X242151299Y-74596666D01*
X242151299Y-74596666D02*
X242151299Y-74834761D01*
X242151299Y-74834761D02*
X242198918Y-74977618D01*
X243151299Y-75406190D02*
X242151299Y-75406190D01*
X242151299Y-75406190D02*
X242865584Y-75739523D01*
X242865584Y-75739523D02*
X242151299Y-76072856D01*
X242151299Y-76072856D02*
X243151299Y-76072856D01*
X242627489Y-76882380D02*
X242627489Y-76549047D01*
X243151299Y-76549047D02*
X242151299Y-76549047D01*
X242151299Y-76549047D02*
X242151299Y-77025237D01*
X242151299Y-77596666D02*
X242151299Y-77691904D01*
X242151299Y-77691904D02*
X242198918Y-77787142D01*
X242198918Y-77787142D02*
X242246537Y-77834761D01*
X242246537Y-77834761D02*
X242341775Y-77882380D01*
X242341775Y-77882380D02*
X242532251Y-77929999D01*
X242532251Y-77929999D02*
X242770346Y-77929999D01*
X242770346Y-77929999D02*
X242960822Y-77882380D01*
X242960822Y-77882380D02*
X243056060Y-77834761D01*
X243056060Y-77834761D02*
X243103680Y-77787142D01*
X243103680Y-77787142D02*
X243151299Y-77691904D01*
X243151299Y-77691904D02*
X243151299Y-77596666D01*
X243151299Y-77596666D02*
X243103680Y-77501428D01*
X243103680Y-77501428D02*
X243056060Y-77453809D01*
X243056060Y-77453809D02*
X242960822Y-77406190D01*
X242960822Y-77406190D02*
X242770346Y-77358571D01*
X242770346Y-77358571D02*
X242532251Y-77358571D01*
X242532251Y-77358571D02*
X242341775Y-77406190D01*
X242341775Y-77406190D02*
X242246537Y-77453809D01*
X242246537Y-77453809D02*
X242198918Y-77501428D01*
X242198918Y-77501428D02*
X242151299Y-77596666D01*
X242151299Y-78834761D02*
X242151299Y-78358571D01*
X242151299Y-78358571D02*
X242627489Y-78310952D01*
X242627489Y-78310952D02*
X242579870Y-78358571D01*
X242579870Y-78358571D02*
X242532251Y-78453809D01*
X242532251Y-78453809D02*
X242532251Y-78691904D01*
X242532251Y-78691904D02*
X242579870Y-78787142D01*
X242579870Y-78787142D02*
X242627489Y-78834761D01*
X242627489Y-78834761D02*
X242722727Y-78882380D01*
X242722727Y-78882380D02*
X242960822Y-78882380D01*
X242960822Y-78882380D02*
X243056060Y-78834761D01*
X243056060Y-78834761D02*
X243103680Y-78787142D01*
X243103680Y-78787142D02*
X243151299Y-78691904D01*
X243151299Y-78691904D02*
X243151299Y-78453809D01*
X243151299Y-78453809D02*
X243103680Y-78358571D01*
X243103680Y-78358571D02*
X243056060Y-78310952D01*
X242151299Y-79501428D02*
X242151299Y-79596666D01*
X242151299Y-79596666D02*
X242198918Y-79691904D01*
X242198918Y-79691904D02*
X242246537Y-79739523D01*
X242246537Y-79739523D02*
X242341775Y-79787142D01*
X242341775Y-79787142D02*
X242532251Y-79834761D01*
X242532251Y-79834761D02*
X242770346Y-79834761D01*
X242770346Y-79834761D02*
X242960822Y-79787142D01*
X242960822Y-79787142D02*
X243056060Y-79739523D01*
X243056060Y-79739523D02*
X243103680Y-79691904D01*
X243103680Y-79691904D02*
X243151299Y-79596666D01*
X243151299Y-79596666D02*
X243151299Y-79501428D01*
X243151299Y-79501428D02*
X243103680Y-79406190D01*
X243103680Y-79406190D02*
X243056060Y-79358571D01*
X243056060Y-79358571D02*
X242960822Y-79310952D01*
X242960822Y-79310952D02*
X242770346Y-79263333D01*
X242770346Y-79263333D02*
X242532251Y-79263333D01*
X242532251Y-79263333D02*
X242341775Y-79310952D01*
X242341775Y-79310952D02*
X242246537Y-79358571D01*
X242246537Y-79358571D02*
X242198918Y-79406190D01*
X242198918Y-79406190D02*
X242151299Y-79501428D01*
X234545094Y-65859299D02*
X234545094Y-64859299D01*
X234545094Y-64859299D02*
X234306999Y-64859299D01*
X234306999Y-64859299D02*
X234164142Y-64906918D01*
X234164142Y-64906918D02*
X234068904Y-65002156D01*
X234068904Y-65002156D02*
X234021285Y-65097394D01*
X234021285Y-65097394D02*
X233973666Y-65287870D01*
X233973666Y-65287870D02*
X233973666Y-65430727D01*
X233973666Y-65430727D02*
X234021285Y-65621203D01*
X234021285Y-65621203D02*
X234068904Y-65716441D01*
X234068904Y-65716441D02*
X234164142Y-65811680D01*
X234164142Y-65811680D02*
X234306999Y-65859299D01*
X234306999Y-65859299D02*
X234545094Y-65859299D01*
X233021285Y-65859299D02*
X233592713Y-65859299D01*
X233306999Y-65859299D02*
X233306999Y-64859299D01*
X233306999Y-64859299D02*
X233402237Y-65002156D01*
X233402237Y-65002156D02*
X233497475Y-65097394D01*
X233497475Y-65097394D02*
X233592713Y-65145013D01*
X235394285Y-71145680D02*
X235251428Y-71193299D01*
X235251428Y-71193299D02*
X235013333Y-71193299D01*
X235013333Y-71193299D02*
X234918095Y-71145680D01*
X234918095Y-71145680D02*
X234870476Y-71098060D01*
X234870476Y-71098060D02*
X234822857Y-71002822D01*
X234822857Y-71002822D02*
X234822857Y-70907584D01*
X234822857Y-70907584D02*
X234870476Y-70812346D01*
X234870476Y-70812346D02*
X234918095Y-70764727D01*
X234918095Y-70764727D02*
X235013333Y-70717108D01*
X235013333Y-70717108D02*
X235203809Y-70669489D01*
X235203809Y-70669489D02*
X235299047Y-70621870D01*
X235299047Y-70621870D02*
X235346666Y-70574251D01*
X235346666Y-70574251D02*
X235394285Y-70479013D01*
X235394285Y-70479013D02*
X235394285Y-70383775D01*
X235394285Y-70383775D02*
X235346666Y-70288537D01*
X235346666Y-70288537D02*
X235299047Y-70240918D01*
X235299047Y-70240918D02*
X235203809Y-70193299D01*
X235203809Y-70193299D02*
X234965714Y-70193299D01*
X234965714Y-70193299D02*
X234822857Y-70240918D01*
X234441904Y-71145680D02*
X234299047Y-71193299D01*
X234299047Y-71193299D02*
X234060952Y-71193299D01*
X234060952Y-71193299D02*
X233965714Y-71145680D01*
X233965714Y-71145680D02*
X233918095Y-71098060D01*
X233918095Y-71098060D02*
X233870476Y-71002822D01*
X233870476Y-71002822D02*
X233870476Y-70907584D01*
X233870476Y-70907584D02*
X233918095Y-70812346D01*
X233918095Y-70812346D02*
X233965714Y-70764727D01*
X233965714Y-70764727D02*
X234060952Y-70717108D01*
X234060952Y-70717108D02*
X234251428Y-70669489D01*
X234251428Y-70669489D02*
X234346666Y-70621870D01*
X234346666Y-70621870D02*
X234394285Y-70574251D01*
X234394285Y-70574251D02*
X234441904Y-70479013D01*
X234441904Y-70479013D02*
X234441904Y-70383775D01*
X234441904Y-70383775D02*
X234394285Y-70288537D01*
X234394285Y-70288537D02*
X234346666Y-70240918D01*
X234346666Y-70240918D02*
X234251428Y-70193299D01*
X234251428Y-70193299D02*
X234013333Y-70193299D01*
X234013333Y-70193299D02*
X233870476Y-70240918D01*
X233537142Y-70193299D02*
X232918095Y-70193299D01*
X232918095Y-70193299D02*
X233251428Y-70574251D01*
X233251428Y-70574251D02*
X233108571Y-70574251D01*
X233108571Y-70574251D02*
X233013333Y-70621870D01*
X233013333Y-70621870D02*
X232965714Y-70669489D01*
X232965714Y-70669489D02*
X232918095Y-70764727D01*
X232918095Y-70764727D02*
X232918095Y-71002822D01*
X232918095Y-71002822D02*
X232965714Y-71098060D01*
X232965714Y-71098060D02*
X233013333Y-71145680D01*
X233013333Y-71145680D02*
X233108571Y-71193299D01*
X233108571Y-71193299D02*
X233394285Y-71193299D01*
X233394285Y-71193299D02*
X233489523Y-71145680D01*
X233489523Y-71145680D02*
X233537142Y-71098060D01*
X232060952Y-70526632D02*
X232060952Y-71193299D01*
X232299047Y-70145680D02*
X232537142Y-70859965D01*
X232537142Y-70859965D02*
X231918095Y-70859965D01*
X79485723Y-79870599D02*
X78866676Y-79870599D01*
X78866676Y-79870599D02*
X79200009Y-80251551D01*
X79200009Y-80251551D02*
X79057152Y-80251551D01*
X79057152Y-80251551D02*
X78961914Y-80299170D01*
X78961914Y-80299170D02*
X78914295Y-80346789D01*
X78914295Y-80346789D02*
X78866676Y-80442027D01*
X78866676Y-80442027D02*
X78866676Y-80680122D01*
X78866676Y-80680122D02*
X78914295Y-80775360D01*
X78914295Y-80775360D02*
X78961914Y-80822980D01*
X78961914Y-80822980D02*
X79057152Y-80870599D01*
X79057152Y-80870599D02*
X79342866Y-80870599D01*
X79342866Y-80870599D02*
X79438104Y-80822980D01*
X79438104Y-80822980D02*
X79485723Y-80775360D01*
X78533342Y-79870599D02*
X77914295Y-79870599D01*
X77914295Y-79870599D02*
X78247628Y-80251551D01*
X78247628Y-80251551D02*
X78104771Y-80251551D01*
X78104771Y-80251551D02*
X78009533Y-80299170D01*
X78009533Y-80299170D02*
X77961914Y-80346789D01*
X77961914Y-80346789D02*
X77914295Y-80442027D01*
X77914295Y-80442027D02*
X77914295Y-80680122D01*
X77914295Y-80680122D02*
X77961914Y-80775360D01*
X77961914Y-80775360D02*
X78009533Y-80822980D01*
X78009533Y-80822980D02*
X78104771Y-80870599D01*
X78104771Y-80870599D02*
X78390485Y-80870599D01*
X78390485Y-80870599D02*
X78485723Y-80822980D01*
X78485723Y-80822980D02*
X78533342Y-80775360D01*
X76914295Y-80870599D02*
X77247628Y-80394408D01*
X77485723Y-80870599D02*
X77485723Y-79870599D01*
X77485723Y-79870599D02*
X77104771Y-79870599D01*
X77104771Y-79870599D02*
X77009533Y-79918218D01*
X77009533Y-79918218D02*
X76961914Y-79965837D01*
X76961914Y-79965837D02*
X76914295Y-80061075D01*
X76914295Y-80061075D02*
X76914295Y-80203932D01*
X76914295Y-80203932D02*
X76961914Y-80299170D01*
X76961914Y-80299170D02*
X77009533Y-80346789D01*
X77009533Y-80346789D02*
X77104771Y-80394408D01*
X77104771Y-80394408D02*
X77485723Y-80394408D01*
X104353856Y-98958680D02*
X104210999Y-99006299D01*
X104210999Y-99006299D02*
X103972904Y-99006299D01*
X103972904Y-99006299D02*
X103877666Y-98958680D01*
X103877666Y-98958680D02*
X103830047Y-98911060D01*
X103830047Y-98911060D02*
X103782428Y-98815822D01*
X103782428Y-98815822D02*
X103782428Y-98720584D01*
X103782428Y-98720584D02*
X103830047Y-98625346D01*
X103830047Y-98625346D02*
X103877666Y-98577727D01*
X103877666Y-98577727D02*
X103972904Y-98530108D01*
X103972904Y-98530108D02*
X104163380Y-98482489D01*
X104163380Y-98482489D02*
X104258618Y-98434870D01*
X104258618Y-98434870D02*
X104306237Y-98387251D01*
X104306237Y-98387251D02*
X104353856Y-98292013D01*
X104353856Y-98292013D02*
X104353856Y-98196775D01*
X104353856Y-98196775D02*
X104306237Y-98101537D01*
X104306237Y-98101537D02*
X104258618Y-98053918D01*
X104258618Y-98053918D02*
X104163380Y-98006299D01*
X104163380Y-98006299D02*
X103925285Y-98006299D01*
X103925285Y-98006299D02*
X103782428Y-98053918D01*
X103353856Y-99006299D02*
X103353856Y-98006299D01*
X103353856Y-98006299D02*
X103020523Y-98720584D01*
X103020523Y-98720584D02*
X102687190Y-98006299D01*
X102687190Y-98006299D02*
X102687190Y-99006299D01*
X102258618Y-98958680D02*
X102115761Y-99006299D01*
X102115761Y-99006299D02*
X101877666Y-99006299D01*
X101877666Y-99006299D02*
X101782428Y-98958680D01*
X101782428Y-98958680D02*
X101734809Y-98911060D01*
X101734809Y-98911060D02*
X101687190Y-98815822D01*
X101687190Y-98815822D02*
X101687190Y-98720584D01*
X101687190Y-98720584D02*
X101734809Y-98625346D01*
X101734809Y-98625346D02*
X101782428Y-98577727D01*
X101782428Y-98577727D02*
X101877666Y-98530108D01*
X101877666Y-98530108D02*
X102068142Y-98482489D01*
X102068142Y-98482489D02*
X102163380Y-98434870D01*
X102163380Y-98434870D02*
X102210999Y-98387251D01*
X102210999Y-98387251D02*
X102258618Y-98292013D01*
X102258618Y-98292013D02*
X102258618Y-98196775D01*
X102258618Y-98196775D02*
X102210999Y-98101537D01*
X102210999Y-98101537D02*
X102163380Y-98053918D01*
X102163380Y-98053918D02*
X102068142Y-98006299D01*
X102068142Y-98006299D02*
X101830047Y-98006299D01*
X101830047Y-98006299D02*
X101687190Y-98053918D01*
X101306237Y-98101537D02*
X101258618Y-98053918D01*
X101258618Y-98053918D02*
X101163380Y-98006299D01*
X101163380Y-98006299D02*
X100925285Y-98006299D01*
X100925285Y-98006299D02*
X100830047Y-98053918D01*
X100830047Y-98053918D02*
X100782428Y-98101537D01*
X100782428Y-98101537D02*
X100734809Y-98196775D01*
X100734809Y-98196775D02*
X100734809Y-98292013D01*
X100734809Y-98292013D02*
X100782428Y-98434870D01*
X100782428Y-98434870D02*
X101353856Y-99006299D01*
X101353856Y-99006299D02*
X100734809Y-99006299D01*
X99877666Y-98339632D02*
X99877666Y-99006299D01*
X100115761Y-97958680D02*
X100353856Y-98672965D01*
X100353856Y-98672965D02*
X99734809Y-98672965D01*
X99496713Y-98006299D02*
X98925285Y-98006299D01*
X99210999Y-99006299D02*
X99210999Y-98006299D01*
X98068142Y-99006299D02*
X98639570Y-99006299D01*
X98353856Y-99006299D02*
X98353856Y-98006299D01*
X98353856Y-98006299D02*
X98449094Y-98149156D01*
X98449094Y-98149156D02*
X98544332Y-98244394D01*
X98544332Y-98244394D02*
X98639570Y-98292013D01*
X97115761Y-98053918D02*
X97210999Y-98006299D01*
X97210999Y-98006299D02*
X97353856Y-98006299D01*
X97353856Y-98006299D02*
X97496713Y-98053918D01*
X97496713Y-98053918D02*
X97591951Y-98149156D01*
X97591951Y-98149156D02*
X97639570Y-98244394D01*
X97639570Y-98244394D02*
X97687189Y-98434870D01*
X97687189Y-98434870D02*
X97687189Y-98577727D01*
X97687189Y-98577727D02*
X97639570Y-98768203D01*
X97639570Y-98768203D02*
X97591951Y-98863441D01*
X97591951Y-98863441D02*
X97496713Y-98958680D01*
X97496713Y-98958680D02*
X97353856Y-99006299D01*
X97353856Y-99006299D02*
X97258618Y-99006299D01*
X97258618Y-99006299D02*
X97115761Y-98958680D01*
X97115761Y-98958680D02*
X97068142Y-98911060D01*
X97068142Y-98911060D02*
X97068142Y-98577727D01*
X97068142Y-98577727D02*
X97258618Y-98577727D01*
D11*
%TO.C,J14*%
X263054500Y-59907800D02*
G75*
G02*
X262292500Y-59907800I-381000J0D01*
G01*
X262292500Y-59907800D02*
G75*
G02*
X263054500Y-59907800I381000J0D01*
G01*
D12*
%TO.C,F1*%
X241310748Y-69401000D02*
X244083252Y-69401000D01*
X241310748Y-65981000D02*
X244083252Y-65981000D01*
%TO.C,D1*%
X230424000Y-69722000D02*
X230424000Y-66422000D01*
X230424000Y-69722000D02*
X235934000Y-69722000D01*
X230424000Y-66422000D02*
X235934000Y-66422000D01*
%TO.C,RS_CLR1*%
X78413458Y-78463800D02*
X77938942Y-78463800D01*
X78413458Y-79508800D02*
X77938942Y-79508800D01*
%TO.C,RS_MOSI1*%
X78413458Y-72012200D02*
X77938942Y-72012200D01*
X78413458Y-73057200D02*
X77938942Y-73057200D01*
%TO.C,RS_LATCH1*%
X78413458Y-75238000D02*
X77938942Y-75238000D01*
X78413458Y-76283000D02*
X77938942Y-76283000D01*
%TO.C,RS_OE_N1*%
X78413458Y-73625100D02*
X77938942Y-73625100D01*
X78413458Y-74670100D02*
X77938942Y-74670100D01*
%TO.C,RS_SCK1*%
X78413458Y-76850900D02*
X77938942Y-76850900D01*
X78413458Y-77895900D02*
X77938942Y-77895900D01*
D11*
%TO.C,J13*%
X260687900Y-85937700D02*
G75*
G02*
X259925900Y-85937700I-381000J0D01*
G01*
X259925900Y-85937700D02*
G75*
G02*
X260687900Y-85937700I381000J0D01*
G01*
%TO.C,J16*%
X247911700Y-51579700D02*
G75*
G02*
X247149700Y-51579700I-381000J0D01*
G01*
X247149700Y-51579700D02*
G75*
G02*
X247911700Y-51579700I381000J0D01*
G01*
D12*
%TO.C,D15*%
X150564554Y-97410793D02*
X150234554Y-97170793D01*
X150564554Y-96930793D01*
X150564554Y-97410793D01*
G36*
X150564554Y-97410793D02*
G01*
X150234554Y-97170793D01*
X150564554Y-96930793D01*
X150564554Y-97410793D01*
G37*
X147164554Y-94810793D02*
X147164554Y-96630793D01*
X147214554Y-94810793D02*
X147164554Y-94810793D01*
X149114554Y-94810793D02*
X148334554Y-94810793D01*
X150284554Y-94810793D02*
X150234554Y-94810793D01*
X147164554Y-96630793D02*
X147214554Y-96630793D01*
X150234554Y-96630793D02*
X150284554Y-96630793D01*
X150284554Y-96630793D02*
X150284554Y-94810793D01*
%TO.C,D14*%
X145443914Y-97410793D02*
X145113914Y-97170793D01*
X145443914Y-96930793D01*
X145443914Y-97410793D01*
G36*
X145443914Y-97410793D02*
G01*
X145113914Y-97170793D01*
X145443914Y-96930793D01*
X145443914Y-97410793D01*
G37*
X142043914Y-94810793D02*
X142043914Y-96630793D01*
X142093914Y-94810793D02*
X142043914Y-94810793D01*
X143993914Y-94810793D02*
X143213914Y-94810793D01*
X145163914Y-94810793D02*
X145113914Y-94810793D01*
X142043914Y-96630793D02*
X142093914Y-96630793D01*
X145113914Y-96630793D02*
X145163914Y-96630793D01*
X145163914Y-96630793D02*
X145163914Y-94810793D01*
%TO.C,D19*%
X171047114Y-97410793D02*
X170717114Y-97170793D01*
X171047114Y-96930793D01*
X171047114Y-97410793D01*
G36*
X171047114Y-97410793D02*
G01*
X170717114Y-97170793D01*
X171047114Y-96930793D01*
X171047114Y-97410793D01*
G37*
X167647114Y-94810793D02*
X167647114Y-96630793D01*
X167697114Y-94810793D02*
X167647114Y-94810793D01*
X169597114Y-94810793D02*
X168817114Y-94810793D01*
X170767114Y-94810793D02*
X170717114Y-94810793D01*
X167647114Y-96630793D02*
X167697114Y-96630793D01*
X170717114Y-96630793D02*
X170767114Y-96630793D01*
X170767114Y-96630793D02*
X170767114Y-94810793D01*
%TO.C,D18*%
X165926474Y-97410793D02*
X165596474Y-97170793D01*
X165926474Y-96930793D01*
X165926474Y-97410793D01*
G36*
X165926474Y-97410793D02*
G01*
X165596474Y-97170793D01*
X165926474Y-96930793D01*
X165926474Y-97410793D01*
G37*
X162526474Y-94810793D02*
X162526474Y-96630793D01*
X162576474Y-94810793D02*
X162526474Y-94810793D01*
X164476474Y-94810793D02*
X163696474Y-94810793D01*
X165646474Y-94810793D02*
X165596474Y-94810793D01*
X162526474Y-96630793D02*
X162576474Y-96630793D01*
X165596474Y-96630793D02*
X165646474Y-96630793D01*
X165646474Y-96630793D02*
X165646474Y-94810793D01*
%TO.C,D17*%
X160805834Y-97410793D02*
X160475834Y-97170793D01*
X160805834Y-96930793D01*
X160805834Y-97410793D01*
G36*
X160805834Y-97410793D02*
G01*
X160475834Y-97170793D01*
X160805834Y-96930793D01*
X160805834Y-97410793D01*
G37*
X157405834Y-94810793D02*
X157405834Y-96630793D01*
X157455834Y-94810793D02*
X157405834Y-94810793D01*
X159355834Y-94810793D02*
X158575834Y-94810793D01*
X160525834Y-94810793D02*
X160475834Y-94810793D01*
X157405834Y-96630793D02*
X157455834Y-96630793D01*
X160475834Y-96630793D02*
X160525834Y-96630793D01*
X160525834Y-96630793D02*
X160525834Y-94810793D01*
%TO.C,D16*%
X155685194Y-97410793D02*
X155355194Y-97170793D01*
X155685194Y-96930793D01*
X155685194Y-97410793D01*
G36*
X155685194Y-97410793D02*
G01*
X155355194Y-97170793D01*
X155685194Y-96930793D01*
X155685194Y-97410793D01*
G37*
X152285194Y-94810793D02*
X152285194Y-96630793D01*
X152335194Y-94810793D02*
X152285194Y-94810793D01*
X154235194Y-94810793D02*
X153455194Y-94810793D01*
X155405194Y-94810793D02*
X155355194Y-94810793D01*
X152285194Y-96630793D02*
X152335194Y-96630793D01*
X155355194Y-96630793D02*
X155405194Y-96630793D01*
X155405194Y-96630793D02*
X155405194Y-94810793D01*
%TO.C,D12*%
X185612614Y-97410793D02*
X185282614Y-97170793D01*
X185612614Y-96930793D01*
X185612614Y-97410793D01*
G36*
X185612614Y-97410793D02*
G01*
X185282614Y-97170793D01*
X185612614Y-96930793D01*
X185612614Y-97410793D01*
G37*
X182212614Y-94810793D02*
X182212614Y-96630793D01*
X182262614Y-94810793D02*
X182212614Y-94810793D01*
X184162614Y-94810793D02*
X183382614Y-94810793D01*
X185332614Y-94810793D02*
X185282614Y-94810793D01*
X182212614Y-96630793D02*
X182262614Y-96630793D01*
X185282614Y-96630793D02*
X185332614Y-96630793D01*
X185332614Y-96630793D02*
X185332614Y-94810793D01*
%TO.C,D22*%
X119993114Y-97410793D02*
X119663114Y-97170793D01*
X119993114Y-96930793D01*
X119993114Y-97410793D01*
G36*
X119993114Y-97410793D02*
G01*
X119663114Y-97170793D01*
X119993114Y-96930793D01*
X119993114Y-97410793D01*
G37*
X116593114Y-94810793D02*
X116593114Y-96630793D01*
X116643114Y-94810793D02*
X116593114Y-94810793D01*
X118543114Y-94810793D02*
X117763114Y-94810793D01*
X119713114Y-94810793D02*
X119663114Y-94810793D01*
X116593114Y-96630793D02*
X116643114Y-96630793D01*
X119663114Y-96630793D02*
X119713114Y-96630793D01*
X119713114Y-96630793D02*
X119713114Y-94810793D01*
%TO.C,D23*%
X125073114Y-97410793D02*
X124743114Y-97170793D01*
X125073114Y-96930793D01*
X125073114Y-97410793D01*
G36*
X125073114Y-97410793D02*
G01*
X124743114Y-97170793D01*
X125073114Y-96930793D01*
X125073114Y-97410793D01*
G37*
X121673114Y-94810793D02*
X121673114Y-96630793D01*
X121723114Y-94810793D02*
X121673114Y-94810793D01*
X123623114Y-94810793D02*
X122843114Y-94810793D01*
X124793114Y-94810793D02*
X124743114Y-94810793D01*
X121673114Y-96630793D02*
X121723114Y-96630793D01*
X124743114Y-96630793D02*
X124793114Y-96630793D01*
X124793114Y-96630793D02*
X124793114Y-94810793D01*
%TO.C,D24*%
X129873114Y-96630793D02*
X129873114Y-94810793D01*
X129823114Y-96630793D02*
X129873114Y-96630793D01*
X126753114Y-96630793D02*
X126803114Y-96630793D01*
X129873114Y-94810793D02*
X129823114Y-94810793D01*
X128703114Y-94810793D02*
X127923114Y-94810793D01*
X126803114Y-94810793D02*
X126753114Y-94810793D01*
X126753114Y-94810793D02*
X126753114Y-96630793D01*
X130153114Y-97410793D02*
X129823114Y-97170793D01*
X130153114Y-96930793D01*
X130153114Y-97410793D01*
G36*
X130153114Y-97410793D02*
G01*
X129823114Y-97170793D01*
X130153114Y-96930793D01*
X130153114Y-97410793D01*
G37*
%TO.C,D21*%
X114633114Y-96630793D02*
X114633114Y-94810793D01*
X114583114Y-96630793D02*
X114633114Y-96630793D01*
X111513114Y-96630793D02*
X111563114Y-96630793D01*
X114633114Y-94810793D02*
X114583114Y-94810793D01*
X113463114Y-94810793D02*
X112683114Y-94810793D01*
X111563114Y-94810793D02*
X111513114Y-94810793D01*
X111513114Y-94810793D02*
X111513114Y-96630793D01*
X114913114Y-97410793D02*
X114583114Y-97170793D01*
X114913114Y-96930793D01*
X114913114Y-97410793D01*
G36*
X114913114Y-97410793D02*
G01*
X114583114Y-97170793D01*
X114913114Y-96930793D01*
X114913114Y-97410793D01*
G37*
%TO.C,D20*%
X109553114Y-96630793D02*
X109553114Y-94810793D01*
X109503114Y-96630793D02*
X109553114Y-96630793D01*
X106433114Y-96630793D02*
X106483114Y-96630793D01*
X109553114Y-94810793D02*
X109503114Y-94810793D01*
X108383114Y-94810793D02*
X107603114Y-94810793D01*
X106483114Y-94810793D02*
X106433114Y-94810793D01*
X106433114Y-94810793D02*
X106433114Y-96630793D01*
X109833114Y-97410793D02*
X109503114Y-97170793D01*
X109833114Y-96930793D01*
X109833114Y-97410793D01*
G36*
X109833114Y-97410793D02*
G01*
X109503114Y-97170793D01*
X109833114Y-96930793D01*
X109833114Y-97410793D01*
G37*
%TO.C,D13*%
X99393114Y-96630793D02*
X99393114Y-94810793D01*
X99343114Y-96630793D02*
X99393114Y-96630793D01*
X96273114Y-96630793D02*
X96323114Y-96630793D01*
X99393114Y-94810793D02*
X99343114Y-94810793D01*
X98223114Y-94810793D02*
X97443114Y-94810793D01*
X96323114Y-94810793D02*
X96273114Y-94810793D01*
X96273114Y-94810793D02*
X96273114Y-96630793D01*
X99673114Y-97410793D02*
X99343114Y-97170793D01*
X99673114Y-96930793D01*
X99673114Y-97410793D01*
G36*
X99673114Y-97410793D02*
G01*
X99343114Y-97170793D01*
X99673114Y-96930793D01*
X99673114Y-97410793D01*
G37*
%TO.C,D11*%
X190440364Y-96630793D02*
X190440364Y-94810793D01*
X190390364Y-96630793D02*
X190440364Y-96630793D01*
X187320364Y-96630793D02*
X187370364Y-96630793D01*
X190440364Y-94810793D02*
X190390364Y-94810793D01*
X189270364Y-94810793D02*
X188490364Y-94810793D01*
X187370364Y-94810793D02*
X187320364Y-94810793D01*
X187320364Y-94810793D02*
X187320364Y-96630793D01*
X190720364Y-97410793D02*
X190390364Y-97170793D01*
X190720364Y-96930793D01*
X190720364Y-97410793D01*
G36*
X190720364Y-97410793D02*
G01*
X190390364Y-97170793D01*
X190720364Y-96930793D01*
X190720364Y-97410793D01*
G37*
%TO.C,D10*%
X195548114Y-96630793D02*
X195548114Y-94810793D01*
X195498114Y-96630793D02*
X195548114Y-96630793D01*
X192428114Y-96630793D02*
X192478114Y-96630793D01*
X195548114Y-94810793D02*
X195498114Y-94810793D01*
X194378114Y-94810793D02*
X193598114Y-94810793D01*
X192478114Y-94810793D02*
X192428114Y-94810793D01*
X192428114Y-94810793D02*
X192428114Y-96630793D01*
X195828114Y-97410793D02*
X195498114Y-97170793D01*
X195828114Y-96930793D01*
X195828114Y-97410793D01*
G36*
X195828114Y-97410793D02*
G01*
X195498114Y-97170793D01*
X195828114Y-96930793D01*
X195828114Y-97410793D01*
G37*
%TO.C,D9*%
X200655864Y-96630793D02*
X200655864Y-94810793D01*
X200605864Y-96630793D02*
X200655864Y-96630793D01*
X197535864Y-96630793D02*
X197585864Y-96630793D01*
X200655864Y-94810793D02*
X200605864Y-94810793D01*
X199485864Y-94810793D02*
X198705864Y-94810793D01*
X197585864Y-94810793D02*
X197535864Y-94810793D01*
X197535864Y-94810793D02*
X197535864Y-96630793D01*
X200935864Y-97410793D02*
X200605864Y-97170793D01*
X200935864Y-96930793D01*
X200935864Y-97410793D01*
G36*
X200935864Y-97410793D02*
G01*
X200605864Y-97170793D01*
X200935864Y-96930793D01*
X200935864Y-97410793D01*
G37*
%TO.C,D8*%
X205763614Y-96630793D02*
X205763614Y-94810793D01*
X205713614Y-96630793D02*
X205763614Y-96630793D01*
X202643614Y-96630793D02*
X202693614Y-96630793D01*
X205763614Y-94810793D02*
X205713614Y-94810793D01*
X204593614Y-94810793D02*
X203813614Y-94810793D01*
X202693614Y-94810793D02*
X202643614Y-94810793D01*
X202643614Y-94810793D02*
X202643614Y-96630793D01*
X206043614Y-97410793D02*
X205713614Y-97170793D01*
X206043614Y-96930793D01*
X206043614Y-97410793D01*
G36*
X206043614Y-97410793D02*
G01*
X205713614Y-97170793D01*
X206043614Y-96930793D01*
X206043614Y-97410793D01*
G37*
%TO.C,D7*%
X210871364Y-96630793D02*
X210871364Y-94810793D01*
X210821364Y-96630793D02*
X210871364Y-96630793D01*
X207751364Y-96630793D02*
X207801364Y-96630793D01*
X210871364Y-94810793D02*
X210821364Y-94810793D01*
X209701364Y-94810793D02*
X208921364Y-94810793D01*
X207801364Y-94810793D02*
X207751364Y-94810793D01*
X207751364Y-94810793D02*
X207751364Y-96630793D01*
X211151364Y-97410793D02*
X210821364Y-97170793D01*
X211151364Y-96930793D01*
X211151364Y-97410793D01*
G36*
X211151364Y-97410793D02*
G01*
X210821364Y-97170793D01*
X211151364Y-96930793D01*
X211151364Y-97410793D01*
G37*
%TO.C,D6*%
X215979114Y-96630793D02*
X215979114Y-94810793D01*
X215929114Y-96630793D02*
X215979114Y-96630793D01*
X212859114Y-96630793D02*
X212909114Y-96630793D01*
X215979114Y-94810793D02*
X215929114Y-94810793D01*
X214809114Y-94810793D02*
X214029114Y-94810793D01*
X212909114Y-94810793D02*
X212859114Y-94810793D01*
X212859114Y-94810793D02*
X212859114Y-96630793D01*
X216259114Y-97410793D02*
X215929114Y-97170793D01*
X216259114Y-96930793D01*
X216259114Y-97410793D01*
G36*
X216259114Y-97410793D02*
G01*
X215929114Y-97170793D01*
X216259114Y-96930793D01*
X216259114Y-97410793D01*
G37*
%TO.C,D5*%
X104473114Y-96630793D02*
X104473114Y-94810793D01*
X104423114Y-96630793D02*
X104473114Y-96630793D01*
X101353114Y-96630793D02*
X101403114Y-96630793D01*
X104473114Y-94810793D02*
X104423114Y-94810793D01*
X103303114Y-94810793D02*
X102523114Y-94810793D01*
X101403114Y-94810793D02*
X101353114Y-94810793D01*
X101353114Y-94810793D02*
X101353114Y-96630793D01*
X104753114Y-97410793D02*
X104423114Y-97170793D01*
X104753114Y-96930793D01*
X104753114Y-97410793D01*
G36*
X104753114Y-97410793D02*
G01*
X104423114Y-97170793D01*
X104753114Y-96930793D01*
X104753114Y-97410793D01*
G37*
%TD*%
M02*
