M48
; DRILL file {KiCad 9.0.7} date 2026-02-19T13:58:17-0500
; FORMAT={-:-/ absolute / metric / decimal}
; #@! TF.CreationDate,2026-02-19T13:58:17-05:00
; #@! TF.GenerationSoftware,Kicad,Pcbnew,9.0.7
; #@! TF.FileFunction,Plated,1,4,PTH
FMAT,2
METRIC
; #@! TA.AperFunction,Plated,PTH,ViaDrill
T1C0.300
; #@! TA.AperFunction,Plated,PTH,ViaDrill
T2C0.400
; #@! TA.AperFunction,Plated,PTH,ComponentDrill
T3C0.750
; #@! TA.AperFunction,Plated,PTH,ComponentDrill
T4C0.800
; #@! TA.AperFunction,Plated,PTH,ComponentDrill
T5C1.000
; #@! TA.AperFunction,Plated,PTH,ComponentDrill
T6C1.295
; #@! TA.AperFunction,Plated,PTH,ComponentDrill
T7C1.981
%
G90
G05
T1
X30.48Y-76.2
X30.48Y-78.74
X30.48Y-86.36
X30.48Y-88.9
X30.48Y-96.52
X30.48Y-99.06
X34.798Y-64.008
X34.798Y-69.342
X35.56Y-73.66
X35.56Y-78.74
X35.56Y-93.98
X35.56Y-99.06
X36.19Y-45.801
X36.317Y-43.134
X38.1Y-58.42
X40.64Y-55.88
X40.64Y-73.66
X40.64Y-78.74
X40.64Y-88.9
X40.64Y-93.98
X40.64Y-99.06
X41.651Y-44.328
X42.926Y-46.817
X43.18Y-58.42
X45.72Y-43.18
X45.72Y-66.04
X45.72Y-88.9
X45.72Y-93.98
X45.72Y-99.06
X48.26Y-60.96
X48.26Y-68.58
X48.26Y-78.74
X48.26Y-83.82
X48.26Y-91.44
X50.8Y-66.04
X51.811Y-79.964
X53.183Y-84.206
X53.34Y-43.18
X53.34Y-48.26
X54.707Y-84.206
X58.72Y-61.143
X60.64Y-79.786
X62.123Y-82.631
X62.428Y-56.825
X62.428Y-64.851
X63.139Y-98.328
X71.12Y-48.26
X71.12Y-53.34
X71.12Y-58.42
X71.12Y-63.5
X73.66Y-95.758
X73.66Y-99.06
X74.671Y-78.872
X76.093Y-74.656
X76.093Y-76.281
X76.2Y-48.26
X76.2Y-53.34
X76.2Y-58.42
X76.2Y-63.5
X76.962Y-95.758
X78.74Y-83.82
X78.74Y-88.9
X78.74Y-99.06
X83.82Y-78.74
X83.82Y-83.82
X83.82Y-93.98
X84.931Y-71.057
X85.833Y-71.755
X86.741Y-71.12
X87.757Y-59.517
X87.884Y-52.151
X88.011Y-49.53
X88.011Y-54.572
X88.189Y-57.024
X93.98Y-43.18
X101.6Y-43.18
X105.913Y-56.977
X106.04Y-44.658
X109.009Y-50.855
X109.009Y-52.176
X109.012Y-49.56
X109.06Y-53.446
X109.06Y-54.665
X109.162Y-55.935
X110.841Y-45.242
X114.3Y-43.18
X119.578Y-56.951
X120.34Y-45.192
X121.557Y-55.935
X122.624Y-50.855
X122.674Y-52.125
X122.674Y-54.614
X122.725Y-53.446
X122.878Y-55.935
X124.811Y-45.192
X127.0Y-43.18
X129.54Y-88.9
X132.08Y-86.36
X132.08Y-91.44
X133.193Y-56.951
X133.345Y-45.242
X134.62Y-88.9
X134.968Y-55.935
X136.34Y-52.125
X136.34Y-53.446
X136.39Y-50.855
X136.441Y-54.614
X136.492Y-55.884
X137.866Y-45.192
X139.7Y-43.18
X146.909Y-56.951
X147.01Y-45.192
X148.735Y-55.884
X149.903Y-50.855
X149.903Y-52.125
X149.903Y-53.446
X149.954Y-54.614
X150.056Y-55.884
X151.887Y-45.242
X154.94Y-43.18
X160.371Y-56.951
X160.675Y-45.192
X162.146Y-55.935
X163.416Y-50.855
X163.416Y-53.446
X163.467Y-52.125
X163.467Y-54.614
X163.467Y-55.935
X165.197Y-45.242
X167.64Y-43.18
X172.72Y-88.9
X174.036Y-56.951
X174.341Y-45.242
X175.26Y-86.36
X175.26Y-91.44
X175.913Y-55.935
X177.03Y-50.855
X177.081Y-53.446
X177.132Y-52.125
X177.132Y-54.614
X177.183Y-55.935
X177.8Y-88.9
X178.913Y-45.242
X180.34Y-43.18
X187.498Y-45.192
X187.599Y-56.951
X189.324Y-55.935
X190.696Y-50.855
X190.696Y-52.125
X190.696Y-54.614
X190.696Y-55.884
X190.746Y-53.446
X192.121Y-45.293
X195.58Y-43.18
X201.265Y-56.951
X201.468Y-45.192
X203.091Y-55.935
X204.208Y-50.855
X204.208Y-52.125
X204.259Y-53.446
X204.259Y-54.614
X204.31Y-55.935
X205.837Y-45.192
X208.28Y-43.18
X214.724Y-56.951
X214.927Y-45.267
X215.9Y-86.36
X215.9Y-88.9
X216.553Y-55.884
X217.823Y-55.935
X217.975Y-50.855
X217.975Y-52.125
X217.975Y-54.614
X218.077Y-53.446
X218.44Y-86.36
X219.4Y-45.141
X220.98Y-43.18
X226.06Y-63.5
X226.06Y-78.74
X226.06Y-83.82
X228.288Y-45.47
X228.338Y-57.002
X228.6Y-60.96
X228.6Y-73.66
X229.888Y-55.935
X231.14Y-63.5
X231.14Y-78.74
X231.14Y-83.82
X232.354Y-45.344
X233.68Y-43.18
X233.68Y-60.96
X233.68Y-73.66
X233.68Y-88.9
X233.68Y-99.06
X235.4Y-50.855
X235.4Y-52.125
X235.45Y-53.344
X235.45Y-54.614
X236.22Y-78.74
X236.22Y-83.82
X236.22Y-99.06
X238.76Y-43.18
X238.76Y-45.72
X238.76Y-99.06
X241.3Y-99.06
X243.84Y-96.52
X243.84Y-98.523
X246.38Y-43.18
X246.38Y-45.72
X246.38Y-48.26
X246.38Y-50.8
X246.38Y-53.34
X246.38Y-55.88
X246.38Y-58.42
X246.38Y-60.96
X246.38Y-63.5
X246.38Y-96.52
X246.38Y-98.523
X248.92Y-43.18
X248.92Y-45.72
X248.92Y-48.26
X248.92Y-60.96
X248.92Y-63.5
X248.92Y-83.82
X248.92Y-86.36
X248.92Y-88.9
X248.92Y-91.44
X248.92Y-93.98
X248.92Y-96.52
X248.92Y-98.523
X251.46Y-43.18
X251.46Y-45.72
X251.46Y-48.26
X251.46Y-60.96
X251.46Y-63.5
X251.46Y-81.28
X251.46Y-83.82
X251.46Y-86.36
X251.46Y-91.44
X251.46Y-93.98
X251.46Y-96.52
X251.46Y-98.523
X254.0Y-43.18
X254.0Y-45.72
X254.0Y-48.26
X254.0Y-81.28
X254.0Y-83.82
X254.0Y-86.36
X254.0Y-91.44
X254.0Y-96.52
X256.54Y-86.36
X256.54Y-91.44
X256.54Y-96.52
X259.08Y-86.36
X259.08Y-91.44
X259.08Y-96.52
X261.62Y-86.36
T2
X94.889Y-62.362
X94.889Y-68.001
X94.889Y-73.843
X94.889Y-79.736
X95.296Y-95.687
X96.774Y-62.357
X96.774Y-68.072
X96.774Y-73.787
X96.774Y-79.121
X100.833Y-95.433
X101.341Y-68.204
X101.341Y-73.69
X101.341Y-79.177
X101.392Y-62.464
X103.251Y-62.484
X103.251Y-67.945
X103.251Y-73.279
X103.251Y-79.121
X106.254Y-95.622
X107.793Y-62.413
X107.793Y-68.102
X107.793Y-73.843
X107.793Y-79.024
X109.728Y-62.484
X109.728Y-67.945
X109.728Y-73.787
X109.728Y-79.248
X110.944Y-95.382
X114.041Y-62.362
X114.041Y-68.102
X114.041Y-73.741
X114.041Y-79.126
X116.022Y-95.382
X116.205Y-62.611
X116.205Y-68.072
X116.205Y-73.66
X116.205Y-79.121
X120.594Y-62.311
X120.594Y-68.052
X120.594Y-73.741
X120.594Y-78.974
X121.153Y-95.433
X122.809Y-62.611
X122.809Y-68.072
X122.809Y-73.787
X122.809Y-79.248
X126.182Y-95.382
X127.046Y-62.311
X127.046Y-67.95
X127.046Y-73.741
X127.046Y-79.075
X129.286Y-62.484
X129.286Y-68.072
X129.286Y-73.66
X129.286Y-79.375
X133.701Y-62.362
X133.701Y-68.102
X133.701Y-73.69
X133.701Y-79.075
X135.763Y-62.611
X135.763Y-68.199
X135.763Y-73.914
X135.763Y-79.121
X140.254Y-62.362
X140.254Y-68.153
X140.254Y-73.792
X140.254Y-79.024
X141.371Y-95.433
X142.24Y-62.611
X142.24Y-67.945
X142.24Y-73.66
X142.24Y-79.248
X146.604Y-95.331
X146.655Y-62.464
X146.655Y-68.001
X146.655Y-73.792
X146.655Y-79.075
X148.717Y-62.484
X148.717Y-68.072
X148.717Y-73.66
X148.717Y-79.375
X151.684Y-95.433
X153.208Y-62.362
X153.208Y-68.052
X153.208Y-73.792
X153.208Y-79.024
X155.194Y-62.611
X155.194Y-67.945
X155.194Y-73.66
X155.194Y-79.375
X156.865Y-95.382
X159.71Y-62.362
X159.71Y-68.102
X159.71Y-73.741
X159.71Y-79.075
X161.684Y-68.085
X161.73Y-62.425
X161.743Y-79.578
X161.747Y-74.066
X161.917Y-95.433
X166.213Y-62.362
X166.213Y-68.052
X166.213Y-73.741
X166.213Y-78.974
X167.127Y-95.941
X168.148Y-62.865
X168.148Y-68.199
X168.148Y-73.787
X168.148Y-79.248
X172.715Y-68.052
X172.715Y-73.69
X172.715Y-78.923
X172.766Y-62.362
X174.752Y-62.484
X174.752Y-68.072
X174.752Y-73.787
X174.752Y-79.248
X179.116Y-68.204
X179.116Y-73.792
X179.116Y-78.923
X179.167Y-62.311
X181.229Y-62.611
X181.229Y-68.199
X181.229Y-73.66
X181.229Y-79.248
X181.707Y-95.941
X185.517Y-68.052
X185.517Y-73.792
X185.517Y-78.974
X185.567Y-62.362
X186.708Y-95.702
X187.706Y-62.611
X187.706Y-67.818
X187.706Y-73.787
X187.706Y-79.121
X191.816Y-95.697
X192.121Y-68.052
X192.121Y-73.741
X192.121Y-78.923
X192.222Y-62.311
X194.137Y-79.406
X194.216Y-62.586
X194.216Y-68.085
X194.216Y-73.762
X197.104Y-95.687
X198.572Y-68.001
X198.572Y-73.741
X198.623Y-62.413
X198.699Y-79.05
X200.673Y-68.085
X200.698Y-62.649
X200.71Y-79.375
X200.746Y-73.746
X202.077Y-95.687
X205.125Y-62.311
X205.125Y-68.102
X205.125Y-73.843
X205.125Y-79.024
X207.137Y-62.611
X207.137Y-68.072
X207.137Y-74.041
X207.137Y-79.248
X207.138Y-95.704
X211.729Y-68.052
X211.729Y-73.69
X211.729Y-78.923
X211.78Y-62.413
X212.288Y-95.738
X213.741Y-62.738
X213.741Y-67.945
X213.741Y-73.66
X213.741Y-78.994
X218.181Y-62.311
X218.245Y-79.72
X218.296Y-68.001
X218.296Y-73.69
X220.218Y-62.357
X220.218Y-68.199
X220.218Y-73.914
X220.218Y-79.248
X225.744Y-93.013
X227.279Y-93.013
T3
X32.155Y-49.796
X32.155Y-51.796
X32.155Y-53.796
X38.353Y-49.796
X38.353Y-51.796
X38.353Y-53.796
X222.093Y-84.816
X222.093Y-86.816
X226.728Y-95.494
X228.728Y-95.494
X230.728Y-95.494
X235.872Y-95.494
X237.872Y-95.494
X239.872Y-95.494
T4
X52.832Y-66.286
X52.832Y-68.826
X52.832Y-71.366
X52.832Y-73.906
X53.492Y-88.422
X53.492Y-90.962
X53.492Y-93.502
X53.492Y-96.042
X60.452Y-66.286
X60.452Y-68.826
X60.452Y-71.366
X60.452Y-73.906
X61.112Y-88.422
X61.112Y-90.962
X61.112Y-93.502
X61.112Y-96.042
X66.387Y-91.34
X66.387Y-93.88
X66.387Y-96.42
X66.391Y-43.083
X66.391Y-45.623
X66.391Y-48.163
X66.391Y-50.703
X66.391Y-53.243
X66.391Y-55.783
X66.391Y-58.323
X66.391Y-60.863
X66.391Y-63.403
X66.391Y-65.943
X66.391Y-68.483
X66.391Y-71.023
X66.391Y-73.563
X66.391Y-76.103
X66.391Y-78.643
X66.391Y-81.183
X66.391Y-83.723
X66.391Y-86.263
X66.391Y-88.803
X89.251Y-43.083
X89.251Y-45.623
X89.251Y-48.163
X89.251Y-50.703
X89.251Y-53.243
X89.251Y-55.783
X89.251Y-58.323
X89.251Y-60.863
X89.251Y-63.403
X89.251Y-65.943
X89.251Y-68.483
X89.251Y-71.023
X89.251Y-73.563
X89.251Y-76.103
X89.251Y-78.643
X89.251Y-81.183
X89.251Y-83.723
X89.251Y-86.263
X89.251Y-88.803
X89.251Y-91.343
X89.251Y-93.883
X89.251Y-96.423
X226.633Y-90.372
X226.76Y-71.576
X229.173Y-90.372
X229.3Y-71.576
X237.555Y-71.55
X237.555Y-90.473
X240.095Y-71.576
X240.095Y-90.499
T5
X58.867Y-52.507
X59.849Y-43.629
X59.849Y-46.169
X59.849Y-48.709
X61.407Y-52.507
X62.389Y-43.629
X62.389Y-46.169
X62.389Y-48.709
X79.742Y-48.341
X79.742Y-50.881
X79.742Y-53.421
X79.742Y-55.961
X79.742Y-58.501
X82.281Y-48.341
X82.281Y-50.881
X82.281Y-53.421
X82.281Y-55.961
X82.281Y-58.501
X96.817Y-86.821
X96.817Y-89.361
X99.357Y-86.821
X99.357Y-89.361
X101.897Y-86.821
X101.897Y-89.361
X104.437Y-86.821
X104.437Y-89.361
X106.977Y-86.821
X106.977Y-89.361
X109.517Y-86.821
X109.517Y-89.361
X112.057Y-86.821
X112.057Y-89.361
X114.597Y-86.821
X114.597Y-89.361
X117.137Y-86.821
X117.137Y-89.361
X119.677Y-86.821
X119.677Y-89.361
X122.217Y-86.821
X122.217Y-89.361
X124.757Y-86.821
X124.757Y-89.361
X127.297Y-86.821
X127.297Y-89.361
X139.743Y-86.821
X139.743Y-89.361
X142.283Y-86.821
X142.283Y-89.361
X144.823Y-86.821
X144.823Y-89.361
X147.363Y-86.821
X147.363Y-89.361
X149.903Y-86.821
X149.903Y-89.361
X152.443Y-86.821
X152.443Y-89.361
X154.983Y-86.821
X154.983Y-89.361
X157.523Y-86.821
X157.523Y-89.361
X160.063Y-86.821
X160.063Y-89.361
X162.603Y-86.821
X162.603Y-89.361
X165.143Y-86.821
X165.143Y-89.361
X167.683Y-86.821
X167.683Y-89.361
X170.223Y-86.821
X170.223Y-89.361
X182.669Y-87.075
X182.669Y-89.615
X185.209Y-87.075
X185.209Y-89.615
X187.749Y-87.075
X187.749Y-89.615
X190.289Y-87.075
X190.289Y-89.615
X192.829Y-87.075
X192.829Y-89.615
X195.369Y-87.075
X195.369Y-89.615
X197.909Y-87.075
X197.909Y-89.615
X200.449Y-87.075
X200.449Y-89.615
X202.989Y-87.075
X202.989Y-89.615
X205.529Y-87.075
X205.529Y-89.615
X208.069Y-87.075
X208.069Y-89.615
X210.609Y-87.075
X210.609Y-89.615
X213.149Y-87.075
X213.149Y-89.615
X239.863Y-49.662
X239.863Y-52.202
X239.863Y-54.742
X239.863Y-57.282
X239.863Y-59.822
X242.403Y-49.662
X242.403Y-52.202
X242.403Y-54.742
X242.403Y-57.282
X242.403Y-59.822
X245.282Y-71.061
X245.282Y-82.047
X245.282Y-93.032
X250.282Y-71.061
X250.282Y-82.047
X250.282Y-93.032
T6
X30.132Y-61.858
X30.132Y-71.858
X30.182Y-82.889
X30.182Y-92.889
X32.632Y-59.358
X32.632Y-66.858
X32.632Y-74.358
X32.682Y-80.389
X32.682Y-87.889
X32.682Y-95.389
T7
X250.109Y-51.58
X250.109Y-56.584
X255.113Y-51.58
X255.113Y-56.584
X255.151Y-60.508
X255.151Y-65.512
X255.151Y-70.515
X255.303Y-88.516
X255.303Y-93.52
X255.303Y-98.523
X260.116Y-51.58
X260.116Y-56.584
X260.154Y-60.508
X260.154Y-65.512
X260.154Y-70.515
X260.307Y-88.516
X260.307Y-93.52
X260.307Y-98.523
M30
