%TF.GenerationSoftware,KiCad,Pcbnew,9.0.6*%
%TF.CreationDate,2026-01-12T11:26:17-05:00*%
%TF.ProjectId,OrganUniversalMCUboard,4f726761-6e55-46e6-9976-657273616c4d,rev?*%
%TF.SameCoordinates,Original*%
%TF.FileFunction,Soldermask,Top*%
%TF.FilePolarity,Negative*%
%FSLAX46Y46*%
G04 Gerber Fmt 4.6, Leading zero omitted, Abs format (unit mm)*
G04 Created by KiCad (PCBNEW 9.0.6) date 2026-01-12 11:26:17*
%MOMM*%
%LPD*%
G01*
G04 APERTURE LIST*
G04 Aperture macros list*
%AMRoundRect*
0 Rectangle with rounded corners*
0 $1 Rounding radius*
0 $2 $3 $4 $5 $6 $7 $8 $9 X,Y pos of 4 corners*
0 Add a 4 corners polygon primitive as box body*
4,1,4,$2,$3,$4,$5,$6,$7,$8,$9,$2,$3,0*
0 Add four circle primitives for the rounded corners*
1,1,$1+$1,$2,$3*
1,1,$1+$1,$4,$5*
1,1,$1+$1,$6,$7*
1,1,$1+$1,$8,$9*
0 Add four rect primitives between the rounded corners*
20,1,$1+$1,$2,$3,$4,$5,0*
20,1,$1+$1,$4,$5,$6,$7,0*
20,1,$1+$1,$6,$7,$8,$9,0*
20,1,$1+$1,$8,$9,$2,$3,0*%
%AMFreePoly0*
4,1,23,0.500000,-0.750000,0.000000,-0.750000,0.000000,-0.745722,-0.065263,-0.745722,-0.191342,-0.711940,-0.304381,-0.646677,-0.396677,-0.554381,-0.461940,-0.441342,-0.495722,-0.315263,-0.495722,-0.250000,-0.500000,-0.250000,-0.500000,0.250000,-0.495722,0.250000,-0.495722,0.315263,-0.461940,0.441342,-0.396677,0.554381,-0.304381,0.646677,-0.191342,0.711940,-0.065263,0.745722,0.000000,0.745722,
0.000000,0.750000,0.500000,0.750000,0.500000,-0.750000,0.500000,-0.750000,$1*%
%AMFreePoly1*
4,1,23,0.000000,0.745722,0.065263,0.745722,0.191342,0.711940,0.304381,0.646677,0.396677,0.554381,0.461940,0.441342,0.495722,0.315263,0.495722,0.250000,0.500000,0.250000,0.500000,-0.250000,0.495722,-0.250000,0.495722,-0.315263,0.461940,-0.441342,0.396677,-0.554381,0.304381,-0.646677,0.191342,-0.711940,0.065263,-0.745722,0.000000,-0.745722,0.000000,-0.750000,-0.500000,-0.750000,
-0.500000,0.750000,0.000000,0.750000,0.000000,0.745722,0.000000,0.745722,$1*%
%AMFreePoly2*
4,1,23,0.550000,-0.750000,0.000000,-0.750000,0.000000,-0.745722,-0.065263,-0.745722,-0.191342,-0.711940,-0.304381,-0.646677,-0.396677,-0.554381,-0.461940,-0.441342,-0.495722,-0.315263,-0.495722,-0.250000,-0.500000,-0.250000,-0.500000,0.250000,-0.495722,0.250000,-0.495722,0.315263,-0.461940,0.441342,-0.396677,0.554381,-0.304381,0.646677,-0.191342,0.711940,-0.065263,0.745722,0.000000,0.745722,
0.000000,0.750000,0.550000,0.750000,0.550000,-0.750000,0.550000,-0.750000,$1*%
%AMFreePoly3*
4,1,23,0.000000,0.745722,0.065263,0.745722,0.191342,0.711940,0.304381,0.646677,0.396677,0.554381,0.461940,0.441342,0.495722,0.315263,0.495722,0.250000,0.500000,0.250000,0.500000,-0.250000,0.495722,-0.250000,0.495722,-0.315263,0.461940,-0.441342,0.396677,-0.554381,0.304381,-0.646677,0.191342,-0.711940,0.065263,-0.745722,0.000000,-0.745722,0.000000,-0.750000,-0.550000,-0.750000,
-0.550000,0.750000,0.000000,0.750000,0.000000,0.745722,0.000000,0.745722,$1*%
G04 Aperture macros list end*
%ADD10C,0.000000*%
%ADD11RoundRect,0.250000X-0.600000X-0.600000X0.600000X-0.600000X0.600000X0.600000X-0.600000X0.600000X0*%
%ADD12C,1.700000*%
%ADD13RoundRect,0.200000X0.275000X-0.200000X0.275000X0.200000X-0.275000X0.200000X-0.275000X-0.200000X0*%
%ADD14RoundRect,0.218750X0.218750X0.256250X-0.218750X0.256250X-0.218750X-0.256250X0.218750X-0.256250X0*%
%ADD15RoundRect,0.200000X-0.200000X-0.275000X0.200000X-0.275000X0.200000X0.275000X-0.200000X0.275000X0*%
%ADD16RoundRect,0.250000X0.550000X0.550000X-0.550000X0.550000X-0.550000X-0.550000X0.550000X-0.550000X0*%
%ADD17C,1.600000*%
%ADD18RoundRect,0.200000X-0.275000X0.200000X-0.275000X-0.200000X0.275000X-0.200000X0.275000X0.200000X0*%
%ADD19FreePoly0,180.000000*%
%ADD20FreePoly1,180.000000*%
%ADD21RoundRect,0.200000X0.200000X0.275000X-0.200000X0.275000X-0.200000X-0.275000X0.200000X-0.275000X0*%
%ADD22C,2.700000*%
%ADD23RoundRect,0.250000X-0.262500X-0.450000X0.262500X-0.450000X0.262500X0.450000X-0.262500X0.450000X0*%
%ADD24RoundRect,0.250000X0.350000X0.625000X-0.350000X0.625000X-0.350000X-0.625000X0.350000X-0.625000X0*%
%ADD25O,1.200000X1.750000*%
%ADD26RoundRect,0.150000X0.150000X-0.587500X0.150000X0.587500X-0.150000X0.587500X-0.150000X-0.587500X0*%
%ADD27FreePoly2,270.000000*%
%ADD28R,1.500000X1.000000*%
%ADD29FreePoly3,270.000000*%
%ADD30R,1.600000X1.600000*%
%ADD31O,1.600000X1.600000*%
%ADD32RoundRect,0.225000X-0.250000X0.225000X-0.250000X-0.225000X0.250000X-0.225000X0.250000X0.225000X0*%
%ADD33RoundRect,0.250000X-0.650000X1.000000X-0.650000X-1.000000X0.650000X-1.000000X0.650000X1.000000X0*%
%ADD34RoundRect,0.250000X0.625000X-0.350000X0.625000X0.350000X-0.625000X0.350000X-0.625000X-0.350000X0*%
%ADD35O,1.750000X1.200000*%
%ADD36R,1.700000X1.700000*%
%ADD37RoundRect,0.250000X-0.625000X0.350000X-0.625000X-0.350000X0.625000X-0.350000X0.625000X0.350000X0*%
%ADD38FreePoly2,90.000000*%
%ADD39FreePoly3,90.000000*%
%ADD40R,2.000000X1.200000*%
%ADD41O,2.000000X1.200000*%
%ADD42RoundRect,0.150000X-0.587500X-0.150000X0.587500X-0.150000X0.587500X0.150000X-0.587500X0.150000X0*%
%ADD43RoundRect,0.150000X0.825000X0.150000X-0.825000X0.150000X-0.825000X-0.150000X0.825000X-0.150000X0*%
%ADD44RoundRect,0.225000X0.250000X-0.225000X0.250000X0.225000X-0.250000X0.225000X-0.250000X-0.225000X0*%
%ADD45RoundRect,0.250000X1.450000X-0.312500X1.450000X0.312500X-1.450000X0.312500X-1.450000X-0.312500X0*%
%ADD46RoundRect,0.250000X-1.000000X-0.650000X1.000000X-0.650000X1.000000X0.650000X-1.000000X0.650000X0*%
G04 APERTURE END LIST*
D10*
%TO.C,JP2*%
G36*
X72032000Y-93484000D02*
G01*
X72032000Y-94984001D01*
X71732000Y-94984000D01*
X71732000Y-93483999D01*
X72032000Y-93484000D01*
G37*
%TO.C,SJ_COMM_RX1*%
G36*
X83702000Y-77204002D02*
G01*
X82202000Y-77204002D01*
X82202000Y-75704002D01*
X83702000Y-75704002D01*
X83702000Y-77204002D01*
G37*
%TO.C,SJ_COMM_TX1*%
G36*
X83701996Y-84823997D02*
G01*
X82201996Y-84823997D01*
X82201996Y-83323997D01*
X83701996Y-83323997D01*
X83701996Y-84823997D01*
G37*
%TD*%
D11*
%TO.C,J7*%
X70993000Y-60833000D03*
D12*
X73533000Y-60833000D03*
X70993000Y-63373000D03*
X73533000Y-63373000D03*
X70993000Y-65913000D03*
X73533000Y-65913000D03*
X70993000Y-68453000D03*
X73533000Y-68453000D03*
X70993000Y-70993000D03*
X73533000Y-70993000D03*
%TD*%
D13*
%TO.C,R4*%
X126704000Y-92082751D03*
X126704000Y-90432751D03*
%TD*%
D14*
%TO.C,D2*%
X119405502Y-86995001D03*
X117830498Y-86994999D03*
%TD*%
D15*
%TO.C,R3*%
X125117000Y-88971751D03*
X126767000Y-88971751D03*
%TD*%
D16*
%TO.C,U2*%
X131312999Y-78105000D03*
D17*
X131313000Y-75564997D03*
X131312999Y-73025000D03*
X131312999Y-70485000D03*
X123692999Y-70485000D03*
X123692998Y-73025000D03*
X123692999Y-75565001D03*
X123692999Y-78105000D03*
%TD*%
D18*
%TO.C,RP_DIP3*%
X115824000Y-90615000D03*
X115824000Y-92265000D03*
%TD*%
D19*
%TO.C,JP2*%
X72532000Y-94234000D03*
D20*
X71232000Y-94234000D03*
%TD*%
D21*
%TO.C,R9*%
X129857002Y-84304752D03*
X128207002Y-84304752D03*
%TD*%
D22*
%TO.C,REF\u002A\u002A*%
X70000000Y-52705000D03*
%TD*%
D15*
%TO.C,RS_MOSI1*%
X78296000Y-105862000D03*
X79946000Y-105862000D03*
%TD*%
%TO.C,RS_CLR1*%
X78296000Y-101290000D03*
X79946000Y-101290000D03*
%TD*%
D23*
%TO.C,RLED2*%
X114530500Y-85217000D03*
X116355500Y-85217000D03*
%TD*%
D24*
%TO.C,J2*%
X120761001Y-123359000D03*
D25*
X118761001Y-123359000D03*
%TD*%
D26*
%TO.C,Q2*%
X127955001Y-82575256D03*
X129854998Y-82575254D03*
X128904999Y-80700253D03*
%TD*%
D24*
%TO.C,J5*%
X82629001Y-90084999D03*
D25*
X80629001Y-90084999D03*
X78629001Y-90084999D03*
X76629000Y-90085000D03*
%TD*%
D27*
%TO.C,SJ_COMM_RX1*%
X82952000Y-75154002D03*
D28*
X82952000Y-76454002D03*
D29*
X82952000Y-77754002D03*
%TD*%
D21*
%TO.C,RP_SDA1*%
X123761000Y-65532000D03*
X122111000Y-65532000D03*
%TD*%
D30*
%TO.C,A5V1*%
X135127999Y-115062001D03*
X137668000Y-115062001D03*
D31*
X126872999Y-115087402D03*
X124332999Y-115062001D03*
D30*
X135254997Y-96266001D03*
X137795000Y-96266001D03*
D31*
X126873000Y-96164401D03*
X124332999Y-96139002D03*
%TD*%
D24*
%TO.C,J1*%
X128016000Y-123444000D03*
D25*
X126016000Y-123444000D03*
%TD*%
D32*
%TO.C,CD_U5*%
X82697998Y-79488994D03*
X82697998Y-81038996D03*
%TD*%
D33*
%TO.C,D1*%
X137668000Y-118142001D03*
X137668000Y-122142001D03*
%TD*%
D34*
%TO.C,J10*%
X118830000Y-114880900D03*
D35*
X118830000Y-112880900D03*
%TD*%
D36*
%TO.C,JP1*%
X69718000Y-81534000D03*
D12*
X72258001Y-81534001D03*
%TD*%
D14*
%TO.C,D3*%
X119405502Y-85217001D03*
X117830498Y-85216999D03*
%TD*%
D13*
%TO.C,R8*%
X126365000Y-82843751D03*
X126365000Y-81193751D03*
%TD*%
D37*
%TO.C,J4*%
X136017000Y-82677000D03*
D35*
X136017000Y-84677000D03*
X136017000Y-86677000D03*
%TD*%
D38*
%TO.C,SJ_COMM_TX1*%
X82951996Y-85373997D03*
D28*
X82951996Y-84073997D03*
D39*
X82951996Y-82773997D03*
%TD*%
D15*
%TO.C,R_TERM1*%
X70676000Y-78994000D03*
X72326000Y-78994000D03*
%TD*%
D22*
%TO.C,REF\u002A\u002A*%
X137000000Y-52705000D03*
%TD*%
%TO.C,REF\u002A\u002A*%
X137000000Y-126365000D03*
%TD*%
D15*
%TO.C,RS_LATCH1*%
X78169000Y-107315000D03*
X79819000Y-107315000D03*
%TD*%
D37*
%TO.C,J3*%
X135890000Y-70993000D03*
D35*
X135890000Y-72993000D03*
%TD*%
D15*
%TO.C,RS1*%
X75268999Y-84201000D03*
X76918999Y-84201000D03*
%TD*%
%TO.C,RS_BCLK1*%
X78155500Y-62851500D03*
X79805500Y-62851500D03*
%TD*%
D40*
%TO.C,U1*%
X88570000Y-57107920D03*
D41*
X88570000Y-59647920D03*
X88570000Y-62187920D03*
X88570000Y-64727920D03*
X88570000Y-67267920D03*
X88570000Y-69807920D03*
X88570000Y-72347920D03*
X88570000Y-74887920D03*
X88570000Y-77427920D03*
X88570000Y-79967920D03*
X88570000Y-82507920D03*
X88570000Y-85047920D03*
X88570000Y-87587920D03*
X88570000Y-90127920D03*
X88570000Y-92667920D03*
X88570000Y-95207920D03*
X88570000Y-97747920D03*
X88570000Y-100287920D03*
X88570000Y-102827920D03*
X88566320Y-105365200D03*
X88566320Y-107905200D03*
X88566320Y-110445200D03*
X111430000Y-110447920D03*
X111430000Y-107907920D03*
X111430000Y-105367920D03*
X111430000Y-102827920D03*
X111430000Y-100287920D03*
X111430000Y-97747920D03*
X111430000Y-95207920D03*
X111430000Y-92667920D03*
X111430000Y-90127920D03*
X111430000Y-87587920D03*
X111430000Y-85047920D03*
X111430000Y-82507920D03*
X111430000Y-79967920D03*
X111430000Y-77427920D03*
X111430000Y-74887920D03*
X111430000Y-72347920D03*
X111430000Y-69807920D03*
X111430000Y-67267920D03*
X111430000Y-64727920D03*
X111430000Y-62187920D03*
X111430000Y-59647920D03*
X111430000Y-57107920D03*
%TD*%
D42*
%TO.C,Q1*%
X128475500Y-90490000D03*
X128475500Y-92390000D03*
X130350500Y-91440000D03*
%TD*%
D15*
%TO.C,R1*%
X125159001Y-84304754D03*
X126809001Y-84304754D03*
%TD*%
%TO.C,RS_DIN1*%
X78155500Y-65899500D03*
X79805500Y-65899500D03*
%TD*%
D36*
%TO.C,J11*%
X115946000Y-76962000D03*
D12*
X118486000Y-76962000D03*
X115946000Y-79502000D03*
X118486000Y-79502000D03*
X115946000Y-82042000D03*
X118486000Y-82042000D03*
%TD*%
D15*
%TO.C,RS_OE_N1*%
X78296000Y-102814000D03*
X79946000Y-102814000D03*
%TD*%
D18*
%TO.C,RP_DIP2*%
X117348000Y-90615000D03*
X117348000Y-92265000D03*
%TD*%
D34*
%TO.C,J6*%
X69935000Y-89884000D03*
D35*
X69935000Y-87884000D03*
X69935000Y-85884000D03*
%TD*%
D21*
%TO.C,R5*%
X137477000Y-78359000D03*
X135827000Y-78359000D03*
%TD*%
D43*
%TO.C,U5*%
X80332998Y-82325001D03*
X80333000Y-81054999D03*
X80333000Y-79784999D03*
X80333000Y-78514998D03*
X75383002Y-78514997D03*
X75383000Y-79784999D03*
X75383000Y-81054999D03*
X75383000Y-82325000D03*
%TD*%
D15*
%TO.C,RS_SCK1*%
X78296000Y-104338000D03*
X79946000Y-104338000D03*
%TD*%
D18*
%TO.C,RP_DIP1*%
X118872000Y-90615000D03*
X118872000Y-92265000D03*
%TD*%
D21*
%TO.C,RP_SCL1*%
X123761000Y-67056000D03*
X122111000Y-67056000D03*
%TD*%
D13*
%TO.C,RS_UART_RX1*%
X84984000Y-78168000D03*
X84984000Y-76518000D03*
%TD*%
D44*
%TO.C,CD_U2*%
X121666000Y-77610001D03*
X121666000Y-76059999D03*
%TD*%
D45*
%TO.C,F1*%
X133604001Y-121771499D03*
X133603999Y-117496501D03*
%TD*%
D11*
%TO.C,J8*%
X71247000Y-101290000D03*
D12*
X73787000Y-101290000D03*
X71247000Y-103830000D03*
X73787000Y-103830000D03*
X71247000Y-106370000D03*
X73787000Y-106370000D03*
X71247000Y-108910000D03*
X73787000Y-108910000D03*
X71247000Y-111450000D03*
X73787000Y-111450000D03*
%TD*%
D23*
%TO.C,RLED1*%
X114530500Y-87122000D03*
X116355500Y-87122000D03*
%TD*%
D18*
%TO.C,RS_UART_TX1*%
X84983998Y-82359998D03*
X84983998Y-84009998D03*
%TD*%
D15*
%TO.C,RS_LRCLK1*%
X78155500Y-64375500D03*
X79805500Y-64375500D03*
%TD*%
D21*
%TO.C,R2*%
X132651000Y-90170000D03*
X131001000Y-90170000D03*
%TD*%
D18*
%TO.C,R6*%
X124841000Y-81193751D03*
X124841000Y-82843751D03*
%TD*%
%TO.C,RP_DIP4*%
X114300000Y-90615000D03*
X114300000Y-92265000D03*
%TD*%
D15*
%TO.C,R7*%
X128927000Y-88717751D03*
X130577000Y-88717751D03*
%TD*%
D22*
%TO.C,REF\u002A\u002A*%
X70000000Y-126365000D03*
%TD*%
D37*
%TO.C,J9*%
X118872000Y-60960000D03*
D35*
X118872000Y-62960000D03*
X118872000Y-64960000D03*
X118872001Y-66960001D03*
%TD*%
D16*
%TO.C,SW1*%
X122042000Y-104127500D03*
D17*
X122042001Y-101587497D03*
X122042000Y-99047500D03*
X122042000Y-96507500D03*
X114422000Y-96507500D03*
X114421998Y-99047500D03*
X114422000Y-101587501D03*
X114422000Y-104127500D03*
%TD*%
D46*
%TO.C,D4*%
X134017000Y-92710000D03*
X138017000Y-92710000D03*
%TD*%
M02*
