M48
; DRILL file {KiCad 9.0.6} date 2026-01-12T10:47:31-0500
; FORMAT={-:-/ absolute / metric / decimal}
; #@! TF.CreationDate,2026-01-12T10:47:31-05:00
; #@! TF.GenerationSoftware,Kicad,Pcbnew,9.0.6
; #@! TF.FileFunction,Plated,1,2,PTH
FMAT,2
METRIC
; #@! TA.AperFunction,Plated,PTH,ViaDrill
T1C0.240
; #@! TA.AperFunction,Plated,PTH,ComponentDrill
T2C0.750
; #@! TA.AperFunction,Plated,PTH,ComponentDrill
T3C0.800
; #@! TA.AperFunction,Plated,PTH,ComponentDrill
T4C1.000
%
G90
G05
T1
X37.5Y-67.5
X37.5Y-97.5
X40.0Y-65.0
X40.0Y-70.0
X42.5Y-85.0
X42.5Y-87.5
X42.6Y-78.0
X45.0Y-55.0
X45.0Y-60.0
X45.0Y-72.5
X45.0Y-102.5
X50.0Y-55.0
X50.0Y-60.0
X50.0Y-102.5
X55.0Y-55.0
X55.0Y-60.0
X55.0Y-87.5
X55.0Y-102.5
X60.0Y-55.0
X60.0Y-60.0
X60.0Y-87.5
X60.0Y-102.5
X65.0Y-55.0
X65.0Y-102.5
X67.5Y-57.5
X70.0Y-55.0
X70.0Y-102.5
X75.0Y-55.0
X75.0Y-102.5
X76.8Y-99.4
X77.5Y-57.5
X80.0Y-55.0
X80.0Y-102.5
X80.35Y-77.884
X80.579Y-91.245
X80.62Y-64.643
X81.6Y-68.3
X82.05Y-98.5
X82.3Y-80.864
X82.3Y-94.89
X82.4Y-84.9
X82.5Y-71.7
X82.9Y-98.5
X83.3Y-71.6
X83.3Y-84.9
X84.237Y-89.34
X84.237Y-91.88
X84.259Y-75.981
X84.259Y-78.521
X84.277Y-62.738
X84.277Y-65.278
X84.336Y-67.639
X84.342Y-94.151
X84.454Y-80.944
X85.0Y-55.0
X85.0Y-85.0
X85.0Y-102.5
X87.5Y-57.5
X89.9Y-72.3
X90.0Y-55.0
X90.0Y-102.5
X91.454Y-72.95
X92.5Y-87.5
X92.5Y-97.5
X92.8Y-60.5
X94.0Y-75.0
X95.0Y-55.0
X95.0Y-85.0
X95.0Y-97.5
X95.0Y-102.5
X100.0Y-55.0
X100.0Y-102.5
X102.5Y-75.0
X102.5Y-87.5
X105.0Y-55.0
X105.0Y-102.5
X107.5Y-75.0
X107.5Y-87.5
X110.0Y-55.0
X110.0Y-102.5
X115.0Y-55.0
X115.0Y-102.5
X120.0Y-55.0
X120.0Y-102.5
X125.0Y-55.0
X125.0Y-102.5
X129.704Y-64.686
X129.715Y-91.286
X129.741Y-77.909
X130.0Y-55.0
X130.0Y-102.5
X130.6Y-68.3
X131.04Y-85.06
X131.1Y-98.4
X131.199Y-81.569
X131.4Y-71.887
X131.8Y-94.979
X131.935Y-98.315
X132.0Y-72.6
X132.0Y-85.1
X133.361Y-62.781
X133.361Y-65.321
X133.373Y-89.381
X133.373Y-91.921
X133.398Y-76.004
X133.398Y-78.544
X133.527Y-67.632
X133.581Y-80.932
X133.691Y-94.181
X140.9Y-93.7
X141.6Y-92.6
X142.3Y-91.7
X142.5Y-55.0
X142.5Y-97.5
X145.0Y-75.0
X147.5Y-55.0
X147.5Y-82.5
X147.5Y-87.5
X147.5Y-90.0
X147.5Y-97.5
X152.5Y-55.0
X152.5Y-82.5
X152.5Y-87.5
X152.5Y-90.0
X152.5Y-97.5
X152.5Y-102.5
X157.5Y-55.0
X157.5Y-85.0
X157.5Y-102.5
X160.0Y-80.0
X160.0Y-90.0
X162.5Y-55.0
X162.5Y-85.0
X162.5Y-102.5
X165.0Y-80.0
X165.0Y-90.0
X167.5Y-55.0
X167.5Y-85.0
X170.0Y-80.0
X170.0Y-90.0
X172.5Y-55.0
X172.5Y-85.0
X173.0Y-103.0
X175.0Y-80.0
X175.0Y-103.0
X177.5Y-55.0
X179.555Y-61.646
X180.5Y-65.2
X180.724Y-69.063
X181.6Y-69.0
X182.4Y-68.9
X182.5Y-55.0
X182.5Y-92.5
X182.88Y-102.362
X182.975Y-70.675
X183.213Y-62.281
X183.231Y-59.759
X183.445Y-64.548
X184.8Y-71.3
X185.0Y-90.0
X187.5Y-55.0
X187.5Y-95.0
X190.0Y-90.0
X191.0Y-104.0
X192.5Y-55.0
X192.5Y-85.0
X192.5Y-95.0
X194.0Y-104.0
X195.0Y-90.0
X197.0Y-104.0
X197.5Y-55.0
X197.5Y-85.0
X198.628Y-100.33
X200.0Y-90.0
X200.0Y-104.0
X202.5Y-55.0
X202.5Y-85.0
X205.0Y-90.0
X207.5Y-55.0
X207.5Y-85.0
X210.0Y-90.0
X212.5Y-55.0
X212.5Y-85.0
X213.25Y-80.4
X213.8Y-81.2
X214.55Y-82.05
X215.0Y-90.0
X217.5Y-55.0
X217.5Y-85.0
X222.0Y-104.0
X222.3Y-71.4
X222.5Y-55.0
X224.131Y-70.75
X225.0Y-104.0
X226.2Y-70.162
X227.5Y-55.0
X228.0Y-104.0
X229.861Y-61.676
X230.8Y-65.3
X231.0Y-104.0
X231.029Y-69.093
X232.5Y-55.0
X233.0Y-70.4
X233.518Y-59.771
X233.518Y-62.311
X233.838Y-64.54
X237.5Y-55.0
X245.0Y-62.5
X245.0Y-67.5
X245.0Y-82.5
X245.0Y-87.5
X245.0Y-92.5
X245.0Y-97.5
T2
X38.95Y-75.5
X38.95Y-77.5
X38.95Y-79.5
X38.95Y-81.5
X38.95Y-83.5
X146.3Y-73.45
X148.3Y-73.45
X150.3Y-73.45
X152.3Y-73.45
X154.1Y-102.1
X154.3Y-73.45
X156.1Y-102.1
X226.346Y-100.372
X228.346Y-100.372
X230.346Y-100.372
X237.143Y-73.457
X237.143Y-75.457
X237.143Y-77.457
X239.3Y-86.7
X239.3Y-88.7
X239.3Y-90.7
X239.3Y-95.6
X239.3Y-97.6
X239.3Y-99.6
X244.2Y-73.5
X244.2Y-75.5
X244.2Y-77.5
T3
X160.83Y-74.676
X160.83Y-97.536
X163.37Y-74.676
X163.37Y-97.536
X165.91Y-74.676
X165.91Y-97.536
X168.45Y-74.676
X168.45Y-97.536
X170.99Y-74.676
X170.99Y-97.536
X173.53Y-74.676
X173.53Y-97.536
X176.07Y-74.676
X176.07Y-97.536
X178.61Y-74.676
X178.61Y-97.536
X181.15Y-74.676
X181.15Y-97.536
X183.69Y-74.676
X183.69Y-97.536
X186.23Y-74.676
X186.23Y-97.536
X188.77Y-74.676
X188.77Y-97.536
X191.31Y-74.676
X191.31Y-97.536
X193.85Y-74.676
X193.85Y-97.536
X196.39Y-74.676
X196.39Y-97.536
X198.93Y-74.676
X198.93Y-97.536
X201.47Y-74.676
X201.47Y-97.536
X204.01Y-74.676
X204.01Y-97.536
X206.55Y-74.676
X206.55Y-97.536
X209.087Y-97.54
X209.09Y-74.676
X211.627Y-97.54
X211.63Y-74.676
X214.167Y-97.54
X214.17Y-74.676
X225.044Y-82.804
X225.044Y-85.344
X225.044Y-87.884
X225.044Y-90.424
X232.664Y-82.804
X232.664Y-85.344
X232.664Y-87.884
X232.664Y-90.424
T4
X48.83Y-64.551
X48.83Y-67.091
X48.83Y-77.797
X48.83Y-80.337
X48.83Y-91.152
X48.83Y-93.692
X51.37Y-64.551
X51.37Y-67.091
X51.37Y-77.797
X51.37Y-80.337
X51.37Y-91.152
X51.37Y-93.692
X53.91Y-64.551
X53.91Y-67.091
X53.91Y-77.797
X53.91Y-80.337
X53.91Y-91.152
X53.91Y-93.692
X56.45Y-64.551
X56.45Y-67.091
X56.45Y-77.797
X56.45Y-80.337
X56.45Y-91.152
X56.45Y-93.692
X58.99Y-64.551
X58.99Y-67.091
X58.99Y-77.797
X58.99Y-80.337
X58.99Y-91.152
X58.99Y-93.692
X61.53Y-64.551
X61.53Y-67.091
X61.53Y-77.797
X61.53Y-80.337
X61.53Y-91.152
X61.53Y-93.692
X64.07Y-64.551
X64.07Y-67.091
X64.07Y-77.797
X64.07Y-80.337
X64.07Y-91.152
X64.07Y-93.692
X66.61Y-64.551
X66.61Y-67.091
X66.61Y-77.797
X66.61Y-80.337
X66.61Y-91.152
X66.61Y-93.692
X97.94Y-64.6
X97.94Y-67.14
X97.94Y-77.831
X97.94Y-80.371
X97.94Y-91.24
X97.94Y-93.78
X100.48Y-64.6
X100.48Y-67.14
X100.48Y-77.831
X100.48Y-80.371
X100.48Y-91.24
X100.48Y-93.78
X103.02Y-64.6
X103.02Y-67.14
X103.02Y-77.831
X103.02Y-80.371
X103.02Y-91.24
X103.02Y-93.78
X105.56Y-64.6
X105.56Y-67.14
X105.56Y-77.831
X105.56Y-80.371
X105.56Y-91.24
X105.56Y-93.78
X108.1Y-64.6
X108.1Y-67.14
X108.1Y-77.831
X108.1Y-80.371
X108.1Y-91.24
X108.1Y-93.78
X110.64Y-64.6
X110.64Y-67.14
X110.64Y-77.831
X110.64Y-80.371
X110.64Y-91.24
X110.64Y-93.78
X113.18Y-64.6
X113.18Y-67.14
X113.18Y-77.831
X113.18Y-80.371
X113.18Y-91.24
X113.18Y-93.78
X115.72Y-64.6
X115.72Y-67.14
X115.72Y-77.831
X115.72Y-80.371
X115.72Y-91.24
X115.72Y-93.78
X147.792Y-61.566
X147.792Y-64.106
X150.332Y-61.566
X150.332Y-64.106
X152.872Y-61.566
X152.872Y-64.106
X155.412Y-61.566
X155.412Y-64.106
X157.952Y-61.566
X157.952Y-64.106
X160.492Y-61.566
X160.492Y-64.106
X163.032Y-61.566
X163.032Y-64.106
X165.572Y-61.566
X165.572Y-64.106
X198.09Y-61.576
X198.09Y-64.116
X200.63Y-61.576
X200.63Y-64.116
X203.17Y-61.576
X203.17Y-64.116
X205.71Y-61.576
X205.71Y-64.116
X208.25Y-61.576
X208.25Y-64.116
X210.79Y-61.576
X210.79Y-64.116
X213.33Y-61.576
X213.33Y-64.116
X215.87Y-61.576
X215.87Y-64.116
M30
