%TF.GenerationSoftware,KiCad,Pcbnew,9.0.6*%
%TF.CreationDate,2026-01-12T10:46:39-05:00*%
%TF.ProjectId,OrganKeyswitchBreakout,4f726761-6e4b-4657-9973-776974636842,rev?*%
%TF.SameCoordinates,Original*%
%TF.FileFunction,Soldermask,Top*%
%TF.FilePolarity,Negative*%
%FSLAX46Y46*%
G04 Gerber Fmt 4.6, Leading zero omitted, Abs format (unit mm)*
G04 Created by KiCad (PCBNEW 9.0.6) date 2026-01-12 10:46:39*
%MOMM*%
%LPD*%
G01*
G04 APERTURE LIST*
G04 Aperture macros list*
%AMRoundRect*
0 Rectangle with rounded corners*
0 $1 Rounding radius*
0 $2 $3 $4 $5 $6 $7 $8 $9 X,Y pos of 4 corners*
0 Add a 4 corners polygon primitive as box body*
4,1,4,$2,$3,$4,$5,$6,$7,$8,$9,$2,$3,0*
0 Add four circle primitives for the rounded corners*
1,1,$1+$1,$2,$3*
1,1,$1+$1,$4,$5*
1,1,$1+$1,$6,$7*
1,1,$1+$1,$8,$9*
0 Add four rect primitives between the rounded corners*
20,1,$1+$1,$2,$3,$4,$5,0*
20,1,$1+$1,$4,$5,$6,$7,0*
20,1,$1+$1,$6,$7,$8,$9,0*
20,1,$1+$1,$8,$9,$2,$3,0*%
%AMFreePoly0*
4,1,23,0.500000,-0.750000,0.000000,-0.750000,0.000000,-0.745722,-0.065263,-0.745722,-0.191342,-0.711940,-0.304381,-0.646677,-0.396677,-0.554381,-0.461940,-0.441342,-0.495722,-0.315263,-0.495722,-0.250000,-0.500000,-0.250000,-0.500000,0.250000,-0.495722,0.250000,-0.495722,0.315263,-0.461940,0.441342,-0.396677,0.554381,-0.304381,0.646677,-0.191342,0.711940,-0.065263,0.745722,0.000000,0.745722,
0.000000,0.750000,0.500000,0.750000,0.500000,-0.750000,0.500000,-0.750000,$1*%
%AMFreePoly1*
4,1,23,0.000000,0.745722,0.065263,0.745722,0.191342,0.711940,0.304381,0.646677,0.396677,0.554381,0.461940,0.441342,0.495722,0.315263,0.495722,0.250000,0.500000,0.250000,0.500000,-0.250000,0.495722,-0.250000,0.495722,-0.315263,0.461940,-0.441342,0.396677,-0.554381,0.304381,-0.646677,0.191342,-0.711940,0.065263,-0.745722,0.000000,-0.745722,0.000000,-0.750000,-0.500000,-0.750000,
-0.500000,0.750000,0.000000,0.750000,0.000000,0.745722,0.000000,0.745722,$1*%
G04 Aperture macros list end*
%ADD10RoundRect,0.250000X0.450000X-0.262500X0.450000X0.262500X-0.450000X0.262500X-0.450000X-0.262500X0*%
%ADD11RoundRect,0.100000X0.100000X-0.850000X0.100000X0.850000X-0.100000X0.850000X-0.100000X-0.850000X0*%
%ADD12RoundRect,0.250000X-0.250000X-0.475000X0.250000X-0.475000X0.250000X0.475000X-0.250000X0.475000X0*%
%ADD13FreePoly0,180.000000*%
%ADD14FreePoly1,180.000000*%
%ADD15RoundRect,0.250000X0.262500X0.450000X-0.262500X0.450000X-0.262500X-0.450000X0.262500X-0.450000X0*%
%ADD16RoundRect,0.200000X-0.275000X0.200000X-0.275000X-0.200000X0.275000X-0.200000X0.275000X0.200000X0*%
%ADD17RoundRect,0.250000X-0.262500X-0.450000X0.262500X-0.450000X0.262500X0.450000X-0.262500X0.450000X0*%
%ADD18RoundRect,0.225000X0.250000X-0.225000X0.250000X0.225000X-0.250000X0.225000X-0.250000X-0.225000X0*%
%ADD19RoundRect,0.200000X0.200000X0.275000X-0.200000X0.275000X-0.200000X-0.275000X0.200000X-0.275000X0*%
%ADD20RoundRect,0.250000X0.600000X-0.600000X0.600000X0.600000X-0.600000X0.600000X-0.600000X-0.600000X0*%
%ADD21C,1.700000*%
%ADD22C,3.200000*%
%ADD23RoundRect,0.250000X0.350000X0.625000X-0.350000X0.625000X-0.350000X-0.625000X0.350000X-0.625000X0*%
%ADD24O,1.200000X1.750000*%
%ADD25RoundRect,0.200000X0.275000X-0.200000X0.275000X0.200000X-0.275000X0.200000X-0.275000X-0.200000X0*%
%ADD26RoundRect,0.218750X0.218750X0.256250X-0.218750X0.256250X-0.218750X-0.256250X0.218750X-0.256250X0*%
%ADD27RoundRect,0.250000X0.625000X-0.350000X0.625000X0.350000X-0.625000X0.350000X-0.625000X-0.350000X0*%
%ADD28O,1.750000X1.200000*%
%ADD29RoundRect,0.250000X-0.625000X0.350000X-0.625000X-0.350000X0.625000X-0.350000X0.625000X0.350000X0*%
%ADD30RoundRect,0.250000X-0.550000X-0.550000X0.550000X-0.550000X0.550000X0.550000X-0.550000X0.550000X0*%
%ADD31C,1.600000*%
%ADD32RoundRect,0.150000X-0.587500X-0.150000X0.587500X-0.150000X0.587500X0.150000X-0.587500X0.150000X0*%
%ADD33RoundRect,0.218750X-0.218750X-0.256250X0.218750X-0.256250X0.218750X0.256250X-0.218750X0.256250X0*%
%ADD34R,1.200000X2.000000*%
%ADD35O,1.200000X2.000000*%
%ADD36RoundRect,0.200000X-0.200000X-0.275000X0.200000X-0.275000X0.200000X0.275000X-0.200000X0.275000X0*%
%ADD37RoundRect,0.150000X-0.825000X-0.150000X0.825000X-0.150000X0.825000X0.150000X-0.825000X0.150000X0*%
%ADD38RoundRect,0.250000X-0.350000X-0.625000X0.350000X-0.625000X0.350000X0.625000X-0.350000X0.625000X0*%
G04 APERTURE END LIST*
%TO.C,JP15*%
G36*
X139046300Y-76651359D02*
G01*
X138746300Y-76651359D01*
X138746300Y-75151359D01*
X139046300Y-75151359D01*
X139046300Y-76651359D01*
G37*
%TO.C,JP12*%
G36*
X89936675Y-89961036D02*
G01*
X89636675Y-89961036D01*
X89636675Y-88461036D01*
X89936675Y-88461036D01*
X89936675Y-89961036D01*
G37*
%TO.C,JP6*%
G36*
X239195950Y-60362414D02*
G01*
X238895950Y-60362414D01*
X238895950Y-58862414D01*
X239195950Y-58862414D01*
X239195950Y-60362414D01*
G37*
%TO.C,JP5*%
G36*
X239195950Y-62916586D02*
G01*
X238895950Y-62916586D01*
X238895950Y-61416586D01*
X239195950Y-61416586D01*
X239195950Y-62916586D01*
G37*
%TO.C,JP21*%
G36*
X89936675Y-76594795D02*
G01*
X89636675Y-76594795D01*
X89636675Y-75094795D01*
X89936675Y-75094795D01*
X89936675Y-76594795D01*
G37*
%TO.C,JP18*%
G36*
X139046300Y-63364579D02*
G01*
X138746300Y-63364579D01*
X138746300Y-61864579D01*
X139046300Y-61864579D01*
X139046300Y-63364579D01*
G37*
%TO.C,JP23*%
G36*
X188897875Y-62898986D02*
G01*
X188597875Y-62898986D01*
X188597875Y-61398986D01*
X188897875Y-61398986D01*
X188897875Y-62898986D01*
G37*
%TO.C,JP2*%
G36*
X139046300Y-92610600D02*
G01*
X138746300Y-92610600D01*
X138746300Y-91110600D01*
X139046300Y-91110600D01*
X139046300Y-92610600D01*
G37*
%TO.C,JP11*%
G36*
X89936675Y-92508121D02*
G01*
X89636675Y-92508121D01*
X89636675Y-91008121D01*
X89936675Y-91008121D01*
X89936675Y-92508121D01*
G37*
%TO.C,JP16*%
G36*
X139046300Y-68487607D02*
G01*
X138746300Y-68487607D01*
X138746300Y-66987607D01*
X139046300Y-66987607D01*
X139046300Y-68487607D01*
G37*
%TO.C,JP3*%
G36*
X139046300Y-90070600D02*
G01*
X138746300Y-90070600D01*
X138746300Y-88570600D01*
X139046300Y-88570600D01*
X139046300Y-90070600D01*
G37*
%TO.C,JP14*%
G36*
X139046300Y-79194902D02*
G01*
X138746300Y-79194902D01*
X138746300Y-77694902D01*
X139046300Y-77694902D01*
X139046300Y-79194902D01*
G37*
%TO.C,JP24*%
G36*
X188897875Y-60341271D02*
G01*
X188597875Y-60341271D01*
X188597875Y-58841271D01*
X188897875Y-58841271D01*
X188897875Y-60341271D01*
G37*
%TO.C,JP1*%
G36*
X139046300Y-95150600D02*
G01*
X138746300Y-95150600D01*
X138746300Y-93650600D01*
X139046300Y-93650600D01*
X139046300Y-95150600D01*
G37*
%TO.C,JP8*%
G36*
X89936675Y-65868957D02*
G01*
X89636675Y-65868957D01*
X89636675Y-64368957D01*
X89936675Y-64368957D01*
X89936675Y-65868957D01*
G37*
%TO.C,JP13*%
G36*
X139046300Y-81738531D02*
G01*
X138746300Y-81738531D01*
X138746300Y-80238531D01*
X139046300Y-80238531D01*
X139046300Y-81738531D01*
G37*
%TO.C,JP20*%
G36*
X89936675Y-79145423D02*
G01*
X89636675Y-79145423D01*
X89636675Y-77645423D01*
X89936675Y-77645423D01*
X89936675Y-79145423D01*
G37*
%TO.C,JP4*%
G36*
X239195950Y-65471100D02*
G01*
X238895950Y-65471100D01*
X238895950Y-63971100D01*
X239195950Y-63971100D01*
X239195950Y-65471100D01*
G37*
%TO.C,JP9*%
G36*
X89936675Y-63304157D02*
G01*
X89636675Y-63304157D01*
X89636675Y-61804157D01*
X89936675Y-61804157D01*
X89936675Y-63304157D01*
G37*
%TO.C,JP10*%
G36*
X89936675Y-95055378D02*
G01*
X89636675Y-95055378D01*
X89636675Y-93555378D01*
X89936675Y-93555378D01*
X89936675Y-95055378D01*
G37*
%TO.C,JP22*%
G36*
X188897875Y-65457129D02*
G01*
X188597875Y-65457129D01*
X188597875Y-63957129D01*
X188897875Y-63957129D01*
X188897875Y-65457129D01*
G37*
%TO.C,JP7*%
G36*
X89936675Y-68434357D02*
G01*
X89636675Y-68434357D01*
X89636675Y-66934357D01*
X89936675Y-66934357D01*
X89936675Y-68434357D01*
G37*
%TO.C,JP17*%
G36*
X139046300Y-65925836D02*
G01*
X138746300Y-65925836D01*
X138746300Y-64425836D01*
X139046300Y-64425836D01*
X139046300Y-65925836D01*
G37*
%TO.C,JP19*%
G36*
X89936675Y-81696309D02*
G01*
X89636675Y-81696309D01*
X89636675Y-80196309D01*
X89936675Y-80196309D01*
X89936675Y-81696309D01*
G37*
%TD*%
D10*
%TO.C,R42*%
X150541000Y-80625000D03*
X150541000Y-78800000D03*
%TD*%
%TO.C,R41*%
X152700000Y-80625000D03*
X152700000Y-78800000D03*
%TD*%
%TO.C,R40*%
X148509000Y-80625000D03*
X148509000Y-78800000D03*
%TD*%
D11*
%TO.C,U7*%
X123835050Y-83118931D03*
X124485050Y-83118931D03*
X125135050Y-83118931D03*
X125785050Y-83118931D03*
X126435050Y-83118931D03*
X127085050Y-83118931D03*
X127735050Y-83118931D03*
X128385050Y-83118931D03*
X129035050Y-83118931D03*
X129685050Y-83118931D03*
X130335050Y-83118931D03*
X130985050Y-83118931D03*
X131635050Y-83118931D03*
X132285050Y-83118931D03*
X132285050Y-76118931D03*
X131635050Y-76118931D03*
X130985050Y-76118931D03*
X130335050Y-76118931D03*
X129685050Y-76118931D03*
X129035050Y-76118931D03*
X128385050Y-76118931D03*
X127735050Y-76118931D03*
X127085050Y-76118931D03*
X126435050Y-76118931D03*
X125785050Y-76118931D03*
X125135050Y-76118931D03*
X124485050Y-76118931D03*
X123835050Y-76118931D03*
%TD*%
D12*
%TO.C,CD_U6*%
X127682800Y-85347645D03*
X129582800Y-85347645D03*
%TD*%
D13*
%TO.C,JP15*%
X139546300Y-75901359D03*
D14*
X138246300Y-75901359D03*
%TD*%
D12*
%TO.C,CD_U3*%
X227832450Y-69085557D03*
X229732450Y-69085557D03*
%TD*%
D10*
%TO.C,R36*%
X187120375Y-68819486D03*
X187120375Y-66994486D03*
%TD*%
D15*
%TO.C,R13*%
X236552950Y-64721100D03*
X234727950Y-64721100D03*
%TD*%
D11*
%TO.C,U4*%
X223984700Y-66863200D03*
X224634700Y-66863200D03*
X225284700Y-66863200D03*
X225934700Y-66863200D03*
X226584700Y-66863200D03*
X227234700Y-66863200D03*
X227884700Y-66863200D03*
X228534700Y-66863200D03*
X229184700Y-66863200D03*
X229834700Y-66863200D03*
X230484700Y-66863200D03*
X231134700Y-66863200D03*
X231784700Y-66863200D03*
X232434700Y-66863200D03*
X232434700Y-59863200D03*
X231784700Y-59863200D03*
X231134700Y-59863200D03*
X230484700Y-59863200D03*
X229834700Y-59863200D03*
X229184700Y-59863200D03*
X228534700Y-59863200D03*
X227884700Y-59863200D03*
X227234700Y-59863200D03*
X226584700Y-59863200D03*
X225934700Y-59863200D03*
X225284700Y-59863200D03*
X224634700Y-59863200D03*
X223984700Y-59863200D03*
%TD*%
D16*
%TO.C,RP_DIP3*%
X234691000Y-87300500D03*
X234691000Y-88950500D03*
%TD*%
D12*
%TO.C,CD_U4*%
X78573175Y-72054157D03*
X80473175Y-72054157D03*
%TD*%
D17*
%TO.C,RLED2*%
X206455000Y-100330000D03*
X208280000Y-100330000D03*
%TD*%
D13*
%TO.C,JP12*%
X90436675Y-89211036D03*
D14*
X89136675Y-89211036D03*
%TD*%
D18*
%TO.C,CD_U2*%
X225163000Y-76010000D03*
X225163000Y-74460000D03*
%TD*%
D16*
%TO.C,RP_DIP4*%
X234691000Y-90348500D03*
X234691000Y-91998500D03*
%TD*%
D10*
%TO.C,R1*%
X136100000Y-98112500D03*
X136100000Y-96287500D03*
%TD*%
D19*
%TO.C,RS1*%
X233100000Y-71679000D03*
X231450000Y-71679000D03*
%TD*%
D20*
%TO.C,J12*%
X97940000Y-67140007D03*
D21*
X97940000Y-64600007D03*
X100480000Y-67140007D03*
X100480000Y-64600007D03*
X103020000Y-67140007D03*
X103020000Y-64600007D03*
X105560000Y-67140007D03*
X105560000Y-64600007D03*
X108100000Y-67140007D03*
X108100000Y-64600007D03*
X110640000Y-67140007D03*
X110640000Y-64600007D03*
X113180000Y-67140007D03*
X113180000Y-64600007D03*
X115720000Y-67140007D03*
X115720000Y-64600007D03*
%TD*%
D22*
%TO.C,H5*%
X245100000Y-56600000D03*
%TD*%
D15*
%TO.C,RLED1*%
X204724000Y-100330000D03*
X202899000Y-100330000D03*
%TD*%
D10*
%TO.C,R28*%
X137268800Y-71850236D03*
X137268800Y-70025236D03*
%TD*%
D12*
%TO.C,CD_U7*%
X127682800Y-72122293D03*
X129582800Y-72122293D03*
%TD*%
D22*
%TO.C,H2*%
X37700000Y-102400000D03*
%TD*%
D23*
%TO.C,J4*%
X230346000Y-100372000D03*
D24*
X228346000Y-100372000D03*
X226346000Y-100372000D03*
%TD*%
D13*
%TO.C,JP6*%
X239695950Y-59612414D03*
D14*
X238395950Y-59612414D03*
%TD*%
D13*
%TO.C,JP5*%
X239695950Y-62166586D03*
D14*
X238395950Y-62166586D03*
%TD*%
D25*
%TO.C,R9*%
X184150000Y-101917000D03*
X184150000Y-100267000D03*
%TD*%
D15*
%TO.C,R25*%
X136403300Y-80988531D03*
X134578300Y-80988531D03*
%TD*%
D26*
%TO.C,D3*%
X211457000Y-100330000D03*
X209882000Y-100330000D03*
%TD*%
D10*
%TO.C,R16*%
X88159175Y-71797257D03*
X88159175Y-69972257D03*
%TD*%
D15*
%TO.C,R38*%
X186254875Y-62148986D03*
X184429875Y-62148986D03*
%TD*%
D10*
%TO.C,R32*%
X88159175Y-85058123D03*
X88159175Y-83233123D03*
%TD*%
D13*
%TO.C,JP21*%
X90436675Y-75844795D03*
D14*
X89136675Y-75844795D03*
%TD*%
D13*
%TO.C,JP18*%
X139546300Y-62614579D03*
D14*
X138246300Y-62614579D03*
%TD*%
D15*
%TO.C,R14*%
X236552950Y-62166586D03*
X234727950Y-62166586D03*
%TD*%
D13*
%TO.C,JP23*%
X189397875Y-62148986D03*
D14*
X188097875Y-62148986D03*
%TD*%
D16*
%TO.C,RP_DIP1*%
X234691000Y-80950500D03*
X234691000Y-82600500D03*
%TD*%
D27*
%TO.C,J2*%
X38950000Y-83500000D03*
D28*
X38950000Y-81500000D03*
X38950000Y-79500000D03*
X38950000Y-77500000D03*
X38950000Y-75500000D03*
%TD*%
D15*
%TO.C,R15*%
X236552950Y-59612414D03*
X234727950Y-59612414D03*
%TD*%
%TO.C,R26*%
X136403300Y-78444902D03*
X134578300Y-78444902D03*
%TD*%
D13*
%TO.C,JP2*%
X139546300Y-91860600D03*
D14*
X138246300Y-91860600D03*
%TD*%
D13*
%TO.C,JP11*%
X90436675Y-91758121D03*
D14*
X89136675Y-91758121D03*
%TD*%
D16*
%TO.C,R7*%
X177038000Y-100267000D03*
X177038000Y-101917000D03*
%TD*%
D13*
%TO.C,JP16*%
X139546300Y-67737607D03*
D14*
X138246300Y-67737607D03*
%TD*%
D29*
%TO.C,J15*%
X244200000Y-73500000D03*
D28*
X244200000Y-75500000D03*
X244200000Y-77500000D03*
%TD*%
D17*
%TO.C,R11*%
X173331500Y-100584000D03*
X175156500Y-100584000D03*
%TD*%
D13*
%TO.C,JP3*%
X139546300Y-89320600D03*
D14*
X138246300Y-89320600D03*
%TD*%
D20*
%TO.C,J9*%
X48830375Y-67090657D03*
D21*
X48830375Y-64550657D03*
X51370375Y-67090657D03*
X51370375Y-64550657D03*
X53910375Y-67090657D03*
X53910375Y-64550657D03*
X56450375Y-67090657D03*
X56450375Y-64550657D03*
X58990375Y-67090657D03*
X58990375Y-64550657D03*
X61530375Y-67090657D03*
X61530375Y-64550657D03*
X64070375Y-67090657D03*
X64070375Y-64550657D03*
X66610375Y-67090657D03*
X66610375Y-64550657D03*
%TD*%
D11*
%TO.C,U10*%
X173686625Y-66853129D03*
X174336625Y-66853129D03*
X174986625Y-66853129D03*
X175636625Y-66853129D03*
X176286625Y-66853129D03*
X176936625Y-66853129D03*
X177586625Y-66853129D03*
X178236625Y-66853129D03*
X178886625Y-66853129D03*
X179536625Y-66853129D03*
X180186625Y-66853129D03*
X180836625Y-66853129D03*
X181486625Y-66853129D03*
X182136625Y-66853129D03*
X182136625Y-59853129D03*
X181486625Y-59853129D03*
X180836625Y-59853129D03*
X180186625Y-59853129D03*
X179536625Y-59853129D03*
X178886625Y-59853129D03*
X178236625Y-59853129D03*
X177586625Y-59853129D03*
X176936625Y-59853129D03*
X176286625Y-59853129D03*
X175636625Y-59853129D03*
X174986625Y-59853129D03*
X174336625Y-59853129D03*
X173686625Y-59853129D03*
%TD*%
%TO.C,U6*%
X74725425Y-96439678D03*
X75375425Y-96439678D03*
X76025425Y-96439678D03*
X76675425Y-96439678D03*
X77325425Y-96439678D03*
X77975425Y-96439678D03*
X78625425Y-96439678D03*
X79275425Y-96439678D03*
X79925425Y-96439678D03*
X80575425Y-96439678D03*
X81225425Y-96439678D03*
X81875425Y-96439678D03*
X82525425Y-96439678D03*
X83175425Y-96439678D03*
X83175425Y-89439678D03*
X82525425Y-89439678D03*
X81875425Y-89439678D03*
X81225425Y-89439678D03*
X80575425Y-89439678D03*
X79925425Y-89439678D03*
X79275425Y-89439678D03*
X78625425Y-89439678D03*
X77975425Y-89439678D03*
X77325425Y-89439678D03*
X76675425Y-89439678D03*
X76025425Y-89439678D03*
X75375425Y-89439678D03*
X74725425Y-89439678D03*
%TD*%
%TO.C,U5*%
X74725425Y-69838157D03*
X75375425Y-69838157D03*
X76025425Y-69838157D03*
X76675425Y-69838157D03*
X77325425Y-69838157D03*
X77975425Y-69838157D03*
X78625425Y-69838157D03*
X79275425Y-69838157D03*
X79925425Y-69838157D03*
X80575425Y-69838157D03*
X81225425Y-69838157D03*
X81875425Y-69838157D03*
X82525425Y-69838157D03*
X83175425Y-69838157D03*
X83175425Y-62838157D03*
X82525425Y-62838157D03*
X81875425Y-62838157D03*
X81225425Y-62838157D03*
X80575425Y-62838157D03*
X79925425Y-62838157D03*
X79275425Y-62838157D03*
X78625425Y-62838157D03*
X77975425Y-62838157D03*
X77325425Y-62838157D03*
X76675425Y-62838157D03*
X76025425Y-62838157D03*
X75375425Y-62838157D03*
X74725425Y-62838157D03*
%TD*%
D15*
%TO.C,R39*%
X186254875Y-59591271D03*
X184429875Y-59591271D03*
%TD*%
%TO.C,R19*%
X87293675Y-62554157D03*
X85468675Y-62554157D03*
%TD*%
D23*
%TO.C,J7*%
X156100000Y-102100000D03*
D24*
X154100000Y-102100000D03*
%TD*%
D15*
%TO.C,R18*%
X87293675Y-65118957D03*
X85468675Y-65118957D03*
%TD*%
D13*
%TO.C,JP14*%
X139546300Y-78444902D03*
D14*
X138246300Y-78444902D03*
%TD*%
D30*
%TO.C,SW1*%
X225044000Y-82804000D03*
D31*
X225044000Y-85344000D03*
X225044000Y-87884000D03*
X225044000Y-90424000D03*
X232664000Y-90424000D03*
X232664000Y-87884000D03*
X232664000Y-85344000D03*
X232664000Y-82804000D03*
%TD*%
D15*
%TO.C,R22*%
X87293675Y-91758121D03*
X85468675Y-91758121D03*
%TD*%
D13*
%TO.C,JP24*%
X189397875Y-59591271D03*
D14*
X188097875Y-59591271D03*
%TD*%
D12*
%TO.C,CD_U9*%
X177534375Y-69106700D03*
X179434375Y-69106700D03*
%TD*%
D32*
%TO.C,Q1*%
X180418500Y-100142000D03*
X180418500Y-102042000D03*
X182293500Y-101092000D03*
%TD*%
D15*
%TO.C,R29*%
X136403300Y-67737607D03*
X134578300Y-67737607D03*
%TD*%
%TO.C,R6*%
X171346500Y-100584000D03*
X169521500Y-100584000D03*
%TD*%
D13*
%TO.C,JP1*%
X139546300Y-94400600D03*
D14*
X138246300Y-94400600D03*
%TD*%
D13*
%TO.C,JP8*%
X90436675Y-65118957D03*
D14*
X89136675Y-65118957D03*
%TD*%
D13*
%TO.C,JP13*%
X139546300Y-80988531D03*
D14*
X138246300Y-80988531D03*
%TD*%
D33*
%TO.C,D2*%
X199722000Y-100330000D03*
X201297000Y-100330000D03*
%TD*%
D15*
%TO.C,R31*%
X136403300Y-62614579D03*
X134578300Y-62614579D03*
%TD*%
D12*
%TO.C,CD_U5*%
X78573175Y-98699607D03*
X80473175Y-98699607D03*
%TD*%
D15*
%TO.C,R2*%
X136403300Y-94400600D03*
X134578300Y-94400600D03*
%TD*%
D22*
%TO.C,H4*%
X137000000Y-102400000D03*
%TD*%
D29*
%TO.C,J6*%
X239300000Y-95600000D03*
D28*
X239300000Y-97600000D03*
X239300000Y-99600000D03*
%TD*%
D29*
%TO.C,J5*%
X239300000Y-86700000D03*
D28*
X239300000Y-88700000D03*
X239300000Y-90700000D03*
%TD*%
D10*
%TO.C,R24*%
X137268800Y-85099802D03*
X137268800Y-83274802D03*
%TD*%
D13*
%TO.C,JP20*%
X90436675Y-78395423D03*
D14*
X89136675Y-78395423D03*
%TD*%
D15*
%TO.C,R3*%
X136403300Y-91860600D03*
X134578300Y-91860600D03*
%TD*%
D25*
%TO.C,R8*%
X178562000Y-101917000D03*
X178562000Y-100267000D03*
%TD*%
D29*
%TO.C,J3*%
X237143000Y-73457000D03*
D28*
X237143000Y-75457000D03*
X237143000Y-77457000D03*
%TD*%
D20*
%TO.C,J8*%
X198089650Y-64115700D03*
D21*
X198089650Y-61575700D03*
X200629650Y-64115700D03*
X200629650Y-61575700D03*
X203169650Y-64115700D03*
X203169650Y-61575700D03*
X205709650Y-64115700D03*
X205709650Y-61575700D03*
X208249650Y-64115700D03*
X208249650Y-61575700D03*
X210789650Y-64115700D03*
X210789650Y-61575700D03*
X213329650Y-64115700D03*
X213329650Y-61575700D03*
X215869650Y-64115700D03*
X215869650Y-61575700D03*
%TD*%
D22*
%TO.C,H3*%
X137000000Y-56600000D03*
%TD*%
D16*
%TO.C,RP_DIP2*%
X234691000Y-84252500D03*
X234691000Y-85902500D03*
%TD*%
D34*
%TO.C,U2*%
X160829920Y-97536000D03*
D35*
X163369920Y-97536000D03*
X165909920Y-97536000D03*
X168449920Y-97536000D03*
X170989920Y-97536000D03*
X173529920Y-97536000D03*
X176069920Y-97536000D03*
X178609920Y-97536000D03*
X181149920Y-97536000D03*
X183689920Y-97536000D03*
X186229920Y-97536000D03*
X188769920Y-97536000D03*
X191309920Y-97536000D03*
X193849920Y-97536000D03*
X196389920Y-97536000D03*
X198929920Y-97536000D03*
X201469920Y-97536000D03*
X204009920Y-97536000D03*
X206549920Y-97536000D03*
X209087200Y-97539680D03*
X211627200Y-97539680D03*
X214167200Y-97539680D03*
X214169920Y-74676000D03*
X211629920Y-74676000D03*
X209089920Y-74676000D03*
X206549920Y-74676000D03*
X204009920Y-74676000D03*
X201469920Y-74676000D03*
X198929920Y-74676000D03*
X196389920Y-74676000D03*
X193849920Y-74676000D03*
X191309920Y-74676000D03*
X188769920Y-74676000D03*
X186229920Y-74676000D03*
X183689920Y-74676000D03*
X181149920Y-74676000D03*
X178609920Y-74676000D03*
X176069920Y-74676000D03*
X173529920Y-74676000D03*
X170989920Y-74676000D03*
X168449920Y-74676000D03*
X165909920Y-74676000D03*
X163369920Y-74676000D03*
X160829920Y-74676000D03*
%TD*%
D15*
%TO.C,R35*%
X87293675Y-75844795D03*
X85468675Y-75844795D03*
%TD*%
D13*
%TO.C,JP4*%
X239695950Y-64721100D03*
D14*
X238395950Y-64721100D03*
%TD*%
D15*
%TO.C,R33*%
X87293675Y-80946309D03*
X85468675Y-80946309D03*
%TD*%
D13*
%TO.C,JP9*%
X90436675Y-62554157D03*
D14*
X89136675Y-62554157D03*
%TD*%
D15*
%TO.C,R27*%
X136403300Y-75901359D03*
X134578300Y-75901359D03*
%TD*%
%TO.C,R30*%
X136403300Y-65175836D03*
X134578300Y-65175836D03*
%TD*%
D13*
%TO.C,JP10*%
X90436675Y-94305378D03*
D14*
X89136675Y-94305378D03*
%TD*%
D22*
%TO.C,H6*%
X245100000Y-102400000D03*
%TD*%
D10*
%TO.C,R20*%
X88159175Y-98416921D03*
X88159175Y-96591921D03*
%TD*%
D36*
%TO.C,R10*%
X221425000Y-100330000D03*
X223075000Y-100330000D03*
%TD*%
D13*
%TO.C,JP22*%
X189397875Y-64707129D03*
D14*
X188097875Y-64707129D03*
%TD*%
D11*
%TO.C,U1*%
X123835050Y-96527100D03*
X124485050Y-96527100D03*
X125135050Y-96527100D03*
X125785050Y-96527100D03*
X126435050Y-96527100D03*
X127085050Y-96527100D03*
X127735050Y-96527100D03*
X128385050Y-96527100D03*
X129035050Y-96527100D03*
X129685050Y-96527100D03*
X130335050Y-96527100D03*
X130985050Y-96527100D03*
X131635050Y-96527100D03*
X132285050Y-96527100D03*
X132285050Y-89527100D03*
X131635050Y-89527100D03*
X130985050Y-89527100D03*
X130335050Y-89527100D03*
X129685050Y-89527100D03*
X129035050Y-89527100D03*
X128385050Y-89527100D03*
X127735050Y-89527100D03*
X127085050Y-89527100D03*
X126435050Y-89527100D03*
X125785050Y-89527100D03*
X125135050Y-89527100D03*
X124485050Y-89527100D03*
X123835050Y-89527100D03*
%TD*%
D15*
%TO.C,R37*%
X186254875Y-64707129D03*
X184429875Y-64707129D03*
%TD*%
%TO.C,R23*%
X87293675Y-89211036D03*
X85468675Y-89211036D03*
%TD*%
D12*
%TO.C,CD_U8*%
X78573175Y-85275652D03*
X80473175Y-85275652D03*
%TD*%
D15*
%TO.C,R4*%
X136403300Y-89320600D03*
X134578300Y-89320600D03*
%TD*%
D37*
%TO.C,U3*%
X227260000Y-73330000D03*
X227260000Y-74600000D03*
X227260000Y-75870000D03*
X227260000Y-77140000D03*
X232210000Y-77140000D03*
X232210000Y-75870000D03*
X232210000Y-74600000D03*
X232210000Y-73330000D03*
%TD*%
D13*
%TO.C,JP7*%
X90436675Y-67684357D03*
D14*
X89136675Y-67684357D03*
%TD*%
D15*
%TO.C,R17*%
X87293675Y-67684357D03*
X85468675Y-67684357D03*
%TD*%
D20*
%TO.C,J10*%
X48830375Y-93692178D03*
D21*
X48830375Y-91152178D03*
X51370375Y-93692178D03*
X51370375Y-91152178D03*
X53910375Y-93692178D03*
X53910375Y-91152178D03*
X56450375Y-93692178D03*
X56450375Y-91152178D03*
X58990375Y-93692178D03*
X58990375Y-91152178D03*
X61530375Y-93692178D03*
X61530375Y-91152178D03*
X64070375Y-93692178D03*
X64070375Y-91152178D03*
X66610375Y-93692178D03*
X66610375Y-91152178D03*
%TD*%
D10*
%TO.C,R12*%
X237418450Y-68833186D03*
X237418450Y-67008186D03*
%TD*%
D17*
%TO.C,R5*%
X165457500Y-100584000D03*
X167282500Y-100584000D03*
%TD*%
D20*
%TO.C,J14*%
X147791575Y-64105629D03*
D21*
X147791575Y-61565629D03*
X150331575Y-64105629D03*
X150331575Y-61565629D03*
X152871575Y-64105629D03*
X152871575Y-61565629D03*
X155411575Y-64105629D03*
X155411575Y-61565629D03*
X157951575Y-64105629D03*
X157951575Y-61565629D03*
X160491575Y-64105629D03*
X160491575Y-61565629D03*
X163031575Y-64105629D03*
X163031575Y-61565629D03*
X165571575Y-64105629D03*
X165571575Y-61565629D03*
%TD*%
D13*
%TO.C,JP17*%
X139546300Y-65175836D03*
D14*
X138246300Y-65175836D03*
%TD*%
D20*
%TO.C,J1*%
X97940000Y-93779600D03*
D21*
X97940000Y-91239600D03*
X100480000Y-93779600D03*
X100480000Y-91239600D03*
X103020000Y-93779600D03*
X103020000Y-91239600D03*
X105560000Y-93779600D03*
X105560000Y-91239600D03*
X108100000Y-93779600D03*
X108100000Y-91239600D03*
X110640000Y-93779600D03*
X110640000Y-91239600D03*
X113180000Y-93779600D03*
X113180000Y-91239600D03*
X115720000Y-93779600D03*
X115720000Y-91239600D03*
%TD*%
D15*
%TO.C,R21*%
X87293675Y-94305378D03*
X85468675Y-94305378D03*
%TD*%
D20*
%TO.C,J11*%
X97940000Y-80371431D03*
D21*
X97940000Y-77831431D03*
X100480000Y-80371431D03*
X100480000Y-77831431D03*
X103020000Y-80371431D03*
X103020000Y-77831431D03*
X105560000Y-80371431D03*
X105560000Y-77831431D03*
X108100000Y-80371431D03*
X108100000Y-77831431D03*
X110640000Y-80371431D03*
X110640000Y-77831431D03*
X113180000Y-80371431D03*
X113180000Y-77831431D03*
X115720000Y-80371431D03*
X115720000Y-77831431D03*
%TD*%
D13*
%TO.C,JP19*%
X90436675Y-80946309D03*
D14*
X89136675Y-80946309D03*
%TD*%
D15*
%TO.C,R34*%
X87293675Y-78395423D03*
X85468675Y-78395423D03*
%TD*%
D20*
%TO.C,J13*%
X48830375Y-80337009D03*
D21*
X48830375Y-77797009D03*
X51370375Y-80337009D03*
X51370375Y-77797009D03*
X53910375Y-80337009D03*
X53910375Y-77797009D03*
X56450375Y-80337009D03*
X56450375Y-77797009D03*
X58990375Y-80337009D03*
X58990375Y-77797009D03*
X61530375Y-80337009D03*
X61530375Y-77797009D03*
X64070375Y-80337009D03*
X64070375Y-77797009D03*
X66610375Y-80337009D03*
X66610375Y-77797009D03*
%TD*%
D12*
%TO.C,CD_U1*%
X127682800Y-98718600D03*
X129582800Y-98718600D03*
%TD*%
D22*
%TO.C,H1*%
X37700000Y-56600000D03*
%TD*%
D11*
%TO.C,U9*%
X74725425Y-83084509D03*
X75375425Y-83084509D03*
X76025425Y-83084509D03*
X76675425Y-83084509D03*
X77325425Y-83084509D03*
X77975425Y-83084509D03*
X78625425Y-83084509D03*
X79275425Y-83084509D03*
X79925425Y-83084509D03*
X80575425Y-83084509D03*
X81225425Y-83084509D03*
X81875425Y-83084509D03*
X82525425Y-83084509D03*
X83175425Y-83084509D03*
X83175425Y-76084509D03*
X82525425Y-76084509D03*
X81875425Y-76084509D03*
X81225425Y-76084509D03*
X80575425Y-76084509D03*
X79925425Y-76084509D03*
X79275425Y-76084509D03*
X78625425Y-76084509D03*
X77975425Y-76084509D03*
X77325425Y-76084509D03*
X76675425Y-76084509D03*
X76025425Y-76084509D03*
X75375425Y-76084509D03*
X74725425Y-76084509D03*
%TD*%
%TO.C,U8*%
X123835050Y-69887507D03*
X124485050Y-69887507D03*
X125135050Y-69887507D03*
X125785050Y-69887507D03*
X126435050Y-69887507D03*
X127085050Y-69887507D03*
X127735050Y-69887507D03*
X128385050Y-69887507D03*
X129035050Y-69887507D03*
X129685050Y-69887507D03*
X130335050Y-69887507D03*
X130985050Y-69887507D03*
X131635050Y-69887507D03*
X132285050Y-69887507D03*
X132285050Y-62887507D03*
X131635050Y-62887507D03*
X130985050Y-62887507D03*
X130335050Y-62887507D03*
X129685050Y-62887507D03*
X129035050Y-62887507D03*
X128385050Y-62887507D03*
X127735050Y-62887507D03*
X127085050Y-62887507D03*
X126435050Y-62887507D03*
X125785050Y-62887507D03*
X125135050Y-62887507D03*
X124485050Y-62887507D03*
X123835050Y-62887507D03*
%TD*%
D38*
%TO.C,J16*%
X146300000Y-73450000D03*
D24*
X148300000Y-73450000D03*
X150300000Y-73450000D03*
X152300000Y-73450000D03*
X154300000Y-73450000D03*
%TD*%
M02*
