%TF.GenerationSoftware,KiCad,Pcbnew,9.0.6*%
%TF.CreationDate,2026-01-12T11:04:55-05:00*%
%TF.ProjectId,OrganKeyswitchBreakout,4f726761-6e4b-4657-9973-776974636842,rev?*%
%TF.SameCoordinates,Original*%
%TF.FileFunction,Paste,Top*%
%TF.FilePolarity,Positive*%
%FSLAX46Y46*%
G04 Gerber Fmt 4.6, Leading zero omitted, Abs format (unit mm)*
G04 Created by KiCad (PCBNEW 9.0.6) date 2026-01-12 11:04:55*
%MOMM*%
%LPD*%
G01*
G04 APERTURE LIST*
G04 Aperture macros list*
%AMRoundRect*
0 Rectangle with rounded corners*
0 $1 Rounding radius*
0 $2 $3 $4 $5 $6 $7 $8 $9 X,Y pos of 4 corners*
0 Add a 4 corners polygon primitive as box body*
4,1,4,$2,$3,$4,$5,$6,$7,$8,$9,$2,$3,0*
0 Add four circle primitives for the rounded corners*
1,1,$1+$1,$2,$3*
1,1,$1+$1,$4,$5*
1,1,$1+$1,$6,$7*
1,1,$1+$1,$8,$9*
0 Add four rect primitives between the rounded corners*
20,1,$1+$1,$2,$3,$4,$5,0*
20,1,$1+$1,$4,$5,$6,$7,0*
20,1,$1+$1,$6,$7,$8,$9,0*
20,1,$1+$1,$8,$9,$2,$3,0*%
G04 Aperture macros list end*
%ADD10RoundRect,0.250000X0.450000X-0.262500X0.450000X0.262500X-0.450000X0.262500X-0.450000X-0.262500X0*%
%ADD11RoundRect,0.100000X0.100000X-0.850000X0.100000X0.850000X-0.100000X0.850000X-0.100000X-0.850000X0*%
%ADD12RoundRect,0.250000X-0.250000X-0.475000X0.250000X-0.475000X0.250000X0.475000X-0.250000X0.475000X0*%
%ADD13RoundRect,0.250000X0.262500X0.450000X-0.262500X0.450000X-0.262500X-0.450000X0.262500X-0.450000X0*%
%ADD14RoundRect,0.200000X-0.275000X0.200000X-0.275000X-0.200000X0.275000X-0.200000X0.275000X0.200000X0*%
%ADD15RoundRect,0.250000X-0.262500X-0.450000X0.262500X-0.450000X0.262500X0.450000X-0.262500X0.450000X0*%
%ADD16RoundRect,0.225000X0.250000X-0.225000X0.250000X0.225000X-0.250000X0.225000X-0.250000X-0.225000X0*%
%ADD17RoundRect,0.200000X0.200000X0.275000X-0.200000X0.275000X-0.200000X-0.275000X0.200000X-0.275000X0*%
%ADD18RoundRect,0.200000X0.275000X-0.200000X0.275000X0.200000X-0.275000X0.200000X-0.275000X-0.200000X0*%
%ADD19RoundRect,0.218750X0.218750X0.256250X-0.218750X0.256250X-0.218750X-0.256250X0.218750X-0.256250X0*%
%ADD20RoundRect,0.150000X-0.587500X-0.150000X0.587500X-0.150000X0.587500X0.150000X-0.587500X0.150000X0*%
%ADD21RoundRect,0.218750X-0.218750X-0.256250X0.218750X-0.256250X0.218750X0.256250X-0.218750X0.256250X0*%
%ADD22RoundRect,0.200000X-0.200000X-0.275000X0.200000X-0.275000X0.200000X0.275000X-0.200000X0.275000X0*%
%ADD23RoundRect,0.150000X-0.825000X-0.150000X0.825000X-0.150000X0.825000X0.150000X-0.825000X0.150000X0*%
G04 APERTURE END LIST*
D10*
%TO.C,R42*%
X150541000Y-80625000D03*
X150541000Y-78800000D03*
%TD*%
%TO.C,R41*%
X152700000Y-80625000D03*
X152700000Y-78800000D03*
%TD*%
%TO.C,R40*%
X148509000Y-80625000D03*
X148509000Y-78800000D03*
%TD*%
D11*
%TO.C,U7*%
X123835050Y-83118931D03*
X124485050Y-83118931D03*
X125135050Y-83118931D03*
X125785050Y-83118931D03*
X126435050Y-83118931D03*
X127085050Y-83118931D03*
X127735050Y-83118931D03*
X128385050Y-83118931D03*
X129035050Y-83118931D03*
X129685050Y-83118931D03*
X130335050Y-83118931D03*
X130985050Y-83118931D03*
X131635050Y-83118931D03*
X132285050Y-83118931D03*
X132285050Y-76118931D03*
X131635050Y-76118931D03*
X130985050Y-76118931D03*
X130335050Y-76118931D03*
X129685050Y-76118931D03*
X129035050Y-76118931D03*
X128385050Y-76118931D03*
X127735050Y-76118931D03*
X127085050Y-76118931D03*
X126435050Y-76118931D03*
X125785050Y-76118931D03*
X125135050Y-76118931D03*
X124485050Y-76118931D03*
X123835050Y-76118931D03*
%TD*%
D12*
%TO.C,CD_U6*%
X127682800Y-85347645D03*
X129582800Y-85347645D03*
%TD*%
%TO.C,CD_U3*%
X227832450Y-69085557D03*
X229732450Y-69085557D03*
%TD*%
D10*
%TO.C,R36*%
X187120375Y-68819486D03*
X187120375Y-66994486D03*
%TD*%
D13*
%TO.C,R13*%
X236552950Y-64721100D03*
X234727950Y-64721100D03*
%TD*%
D11*
%TO.C,U4*%
X223984700Y-66863200D03*
X224634700Y-66863200D03*
X225284700Y-66863200D03*
X225934700Y-66863200D03*
X226584700Y-66863200D03*
X227234700Y-66863200D03*
X227884700Y-66863200D03*
X228534700Y-66863200D03*
X229184700Y-66863200D03*
X229834700Y-66863200D03*
X230484700Y-66863200D03*
X231134700Y-66863200D03*
X231784700Y-66863200D03*
X232434700Y-66863200D03*
X232434700Y-59863200D03*
X231784700Y-59863200D03*
X231134700Y-59863200D03*
X230484700Y-59863200D03*
X229834700Y-59863200D03*
X229184700Y-59863200D03*
X228534700Y-59863200D03*
X227884700Y-59863200D03*
X227234700Y-59863200D03*
X226584700Y-59863200D03*
X225934700Y-59863200D03*
X225284700Y-59863200D03*
X224634700Y-59863200D03*
X223984700Y-59863200D03*
%TD*%
D14*
%TO.C,RP_DIP3*%
X234691000Y-87300500D03*
X234691000Y-88950500D03*
%TD*%
D12*
%TO.C,CD_U4*%
X78573175Y-72054157D03*
X80473175Y-72054157D03*
%TD*%
D15*
%TO.C,RLED2*%
X206455000Y-100330000D03*
X208280000Y-100330000D03*
%TD*%
D16*
%TO.C,CD_U2*%
X225163000Y-76010000D03*
X225163000Y-74460000D03*
%TD*%
D14*
%TO.C,RP_DIP4*%
X234691000Y-90348500D03*
X234691000Y-91998500D03*
%TD*%
D10*
%TO.C,R1*%
X136100000Y-98112500D03*
X136100000Y-96287500D03*
%TD*%
D17*
%TO.C,RS1*%
X233100000Y-71679000D03*
X231450000Y-71679000D03*
%TD*%
D13*
%TO.C,RLED1*%
X204724000Y-100330000D03*
X202899000Y-100330000D03*
%TD*%
D10*
%TO.C,R28*%
X137268800Y-71850236D03*
X137268800Y-70025236D03*
%TD*%
D12*
%TO.C,CD_U7*%
X127682800Y-72122293D03*
X129582800Y-72122293D03*
%TD*%
D18*
%TO.C,R9*%
X184150000Y-101917000D03*
X184150000Y-100267000D03*
%TD*%
D13*
%TO.C,R25*%
X136403300Y-80988531D03*
X134578300Y-80988531D03*
%TD*%
D19*
%TO.C,D3*%
X211457000Y-100330000D03*
X209882000Y-100330000D03*
%TD*%
D10*
%TO.C,R16*%
X88159175Y-71797257D03*
X88159175Y-69972257D03*
%TD*%
D13*
%TO.C,R38*%
X186254875Y-62148986D03*
X184429875Y-62148986D03*
%TD*%
D10*
%TO.C,R32*%
X88159175Y-85058123D03*
X88159175Y-83233123D03*
%TD*%
D13*
%TO.C,R14*%
X236552950Y-62166586D03*
X234727950Y-62166586D03*
%TD*%
D14*
%TO.C,RP_DIP1*%
X234691000Y-80950500D03*
X234691000Y-82600500D03*
%TD*%
D13*
%TO.C,R15*%
X236552950Y-59612414D03*
X234727950Y-59612414D03*
%TD*%
%TO.C,R26*%
X136403300Y-78444902D03*
X134578300Y-78444902D03*
%TD*%
D14*
%TO.C,R7*%
X177038000Y-100267000D03*
X177038000Y-101917000D03*
%TD*%
D15*
%TO.C,R11*%
X173331500Y-100584000D03*
X175156500Y-100584000D03*
%TD*%
D11*
%TO.C,U10*%
X173686625Y-66853129D03*
X174336625Y-66853129D03*
X174986625Y-66853129D03*
X175636625Y-66853129D03*
X176286625Y-66853129D03*
X176936625Y-66853129D03*
X177586625Y-66853129D03*
X178236625Y-66853129D03*
X178886625Y-66853129D03*
X179536625Y-66853129D03*
X180186625Y-66853129D03*
X180836625Y-66853129D03*
X181486625Y-66853129D03*
X182136625Y-66853129D03*
X182136625Y-59853129D03*
X181486625Y-59853129D03*
X180836625Y-59853129D03*
X180186625Y-59853129D03*
X179536625Y-59853129D03*
X178886625Y-59853129D03*
X178236625Y-59853129D03*
X177586625Y-59853129D03*
X176936625Y-59853129D03*
X176286625Y-59853129D03*
X175636625Y-59853129D03*
X174986625Y-59853129D03*
X174336625Y-59853129D03*
X173686625Y-59853129D03*
%TD*%
%TO.C,U6*%
X74725425Y-96439678D03*
X75375425Y-96439678D03*
X76025425Y-96439678D03*
X76675425Y-96439678D03*
X77325425Y-96439678D03*
X77975425Y-96439678D03*
X78625425Y-96439678D03*
X79275425Y-96439678D03*
X79925425Y-96439678D03*
X80575425Y-96439678D03*
X81225425Y-96439678D03*
X81875425Y-96439678D03*
X82525425Y-96439678D03*
X83175425Y-96439678D03*
X83175425Y-89439678D03*
X82525425Y-89439678D03*
X81875425Y-89439678D03*
X81225425Y-89439678D03*
X80575425Y-89439678D03*
X79925425Y-89439678D03*
X79275425Y-89439678D03*
X78625425Y-89439678D03*
X77975425Y-89439678D03*
X77325425Y-89439678D03*
X76675425Y-89439678D03*
X76025425Y-89439678D03*
X75375425Y-89439678D03*
X74725425Y-89439678D03*
%TD*%
%TO.C,U5*%
X74725425Y-69838157D03*
X75375425Y-69838157D03*
X76025425Y-69838157D03*
X76675425Y-69838157D03*
X77325425Y-69838157D03*
X77975425Y-69838157D03*
X78625425Y-69838157D03*
X79275425Y-69838157D03*
X79925425Y-69838157D03*
X80575425Y-69838157D03*
X81225425Y-69838157D03*
X81875425Y-69838157D03*
X82525425Y-69838157D03*
X83175425Y-69838157D03*
X83175425Y-62838157D03*
X82525425Y-62838157D03*
X81875425Y-62838157D03*
X81225425Y-62838157D03*
X80575425Y-62838157D03*
X79925425Y-62838157D03*
X79275425Y-62838157D03*
X78625425Y-62838157D03*
X77975425Y-62838157D03*
X77325425Y-62838157D03*
X76675425Y-62838157D03*
X76025425Y-62838157D03*
X75375425Y-62838157D03*
X74725425Y-62838157D03*
%TD*%
D13*
%TO.C,R39*%
X186254875Y-59591271D03*
X184429875Y-59591271D03*
%TD*%
%TO.C,R19*%
X87293675Y-62554157D03*
X85468675Y-62554157D03*
%TD*%
%TO.C,R18*%
X87293675Y-65118957D03*
X85468675Y-65118957D03*
%TD*%
%TO.C,R22*%
X87293675Y-91758121D03*
X85468675Y-91758121D03*
%TD*%
D12*
%TO.C,CD_U9*%
X177534375Y-69106700D03*
X179434375Y-69106700D03*
%TD*%
D20*
%TO.C,Q1*%
X180418500Y-100142000D03*
X180418500Y-102042000D03*
X182293500Y-101092000D03*
%TD*%
D13*
%TO.C,R29*%
X136403300Y-67737607D03*
X134578300Y-67737607D03*
%TD*%
%TO.C,R6*%
X171346500Y-100584000D03*
X169521500Y-100584000D03*
%TD*%
D21*
%TO.C,D2*%
X199722000Y-100330000D03*
X201297000Y-100330000D03*
%TD*%
D13*
%TO.C,R31*%
X136403300Y-62614579D03*
X134578300Y-62614579D03*
%TD*%
D12*
%TO.C,CD_U5*%
X78573175Y-98699607D03*
X80473175Y-98699607D03*
%TD*%
D13*
%TO.C,R2*%
X136403300Y-94400600D03*
X134578300Y-94400600D03*
%TD*%
D10*
%TO.C,R24*%
X137268800Y-85099802D03*
X137268800Y-83274802D03*
%TD*%
D13*
%TO.C,R3*%
X136403300Y-91860600D03*
X134578300Y-91860600D03*
%TD*%
D18*
%TO.C,R8*%
X178562000Y-101917000D03*
X178562000Y-100267000D03*
%TD*%
D14*
%TO.C,RP_DIP2*%
X234691000Y-84252500D03*
X234691000Y-85902500D03*
%TD*%
D13*
%TO.C,R35*%
X87293675Y-75844795D03*
X85468675Y-75844795D03*
%TD*%
%TO.C,R33*%
X87293675Y-80946309D03*
X85468675Y-80946309D03*
%TD*%
%TO.C,R27*%
X136403300Y-75901359D03*
X134578300Y-75901359D03*
%TD*%
%TO.C,R30*%
X136403300Y-65175836D03*
X134578300Y-65175836D03*
%TD*%
D10*
%TO.C,R20*%
X88159175Y-98416921D03*
X88159175Y-96591921D03*
%TD*%
D22*
%TO.C,R10*%
X221425000Y-100330000D03*
X223075000Y-100330000D03*
%TD*%
D11*
%TO.C,U1*%
X123835050Y-96527100D03*
X124485050Y-96527100D03*
X125135050Y-96527100D03*
X125785050Y-96527100D03*
X126435050Y-96527100D03*
X127085050Y-96527100D03*
X127735050Y-96527100D03*
X128385050Y-96527100D03*
X129035050Y-96527100D03*
X129685050Y-96527100D03*
X130335050Y-96527100D03*
X130985050Y-96527100D03*
X131635050Y-96527100D03*
X132285050Y-96527100D03*
X132285050Y-89527100D03*
X131635050Y-89527100D03*
X130985050Y-89527100D03*
X130335050Y-89527100D03*
X129685050Y-89527100D03*
X129035050Y-89527100D03*
X128385050Y-89527100D03*
X127735050Y-89527100D03*
X127085050Y-89527100D03*
X126435050Y-89527100D03*
X125785050Y-89527100D03*
X125135050Y-89527100D03*
X124485050Y-89527100D03*
X123835050Y-89527100D03*
%TD*%
D13*
%TO.C,R37*%
X186254875Y-64707129D03*
X184429875Y-64707129D03*
%TD*%
%TO.C,R23*%
X87293675Y-89211036D03*
X85468675Y-89211036D03*
%TD*%
D12*
%TO.C,CD_U8*%
X78573175Y-85275652D03*
X80473175Y-85275652D03*
%TD*%
D13*
%TO.C,R4*%
X136403300Y-89320600D03*
X134578300Y-89320600D03*
%TD*%
D23*
%TO.C,U3*%
X227260000Y-73330000D03*
X227260000Y-74600000D03*
X227260000Y-75870000D03*
X227260000Y-77140000D03*
X232210000Y-77140000D03*
X232210000Y-75870000D03*
X232210000Y-74600000D03*
X232210000Y-73330000D03*
%TD*%
D13*
%TO.C,R17*%
X87293675Y-67684357D03*
X85468675Y-67684357D03*
%TD*%
D10*
%TO.C,R12*%
X237418450Y-68833186D03*
X237418450Y-67008186D03*
%TD*%
D15*
%TO.C,R5*%
X165457500Y-100584000D03*
X167282500Y-100584000D03*
%TD*%
D13*
%TO.C,R21*%
X87293675Y-94305378D03*
X85468675Y-94305378D03*
%TD*%
%TO.C,R34*%
X87293675Y-78395423D03*
X85468675Y-78395423D03*
%TD*%
D12*
%TO.C,CD_U1*%
X127682800Y-98718600D03*
X129582800Y-98718600D03*
%TD*%
D11*
%TO.C,U9*%
X74725425Y-83084509D03*
X75375425Y-83084509D03*
X76025425Y-83084509D03*
X76675425Y-83084509D03*
X77325425Y-83084509D03*
X77975425Y-83084509D03*
X78625425Y-83084509D03*
X79275425Y-83084509D03*
X79925425Y-83084509D03*
X80575425Y-83084509D03*
X81225425Y-83084509D03*
X81875425Y-83084509D03*
X82525425Y-83084509D03*
X83175425Y-83084509D03*
X83175425Y-76084509D03*
X82525425Y-76084509D03*
X81875425Y-76084509D03*
X81225425Y-76084509D03*
X80575425Y-76084509D03*
X79925425Y-76084509D03*
X79275425Y-76084509D03*
X78625425Y-76084509D03*
X77975425Y-76084509D03*
X77325425Y-76084509D03*
X76675425Y-76084509D03*
X76025425Y-76084509D03*
X75375425Y-76084509D03*
X74725425Y-76084509D03*
%TD*%
%TO.C,U8*%
X123835050Y-69887507D03*
X124485050Y-69887507D03*
X125135050Y-69887507D03*
X125785050Y-69887507D03*
X126435050Y-69887507D03*
X127085050Y-69887507D03*
X127735050Y-69887507D03*
X128385050Y-69887507D03*
X129035050Y-69887507D03*
X129685050Y-69887507D03*
X130335050Y-69887507D03*
X130985050Y-69887507D03*
X131635050Y-69887507D03*
X132285050Y-69887507D03*
X132285050Y-62887507D03*
X131635050Y-62887507D03*
X130985050Y-62887507D03*
X130335050Y-62887507D03*
X129685050Y-62887507D03*
X129035050Y-62887507D03*
X128385050Y-62887507D03*
X127735050Y-62887507D03*
X127085050Y-62887507D03*
X126435050Y-62887507D03*
X125785050Y-62887507D03*
X125135050Y-62887507D03*
X124485050Y-62887507D03*
X123835050Y-62887507D03*
%TD*%
M02*
