M48
; DRILL file {KiCad 9.0.6} date 2026-01-05T15:15:36-0500
; FORMAT={-:-/ absolute / metric / decimal}
; #@! TF.CreationDate,2026-01-05T15:15:36-05:00
; #@! TF.GenerationSoftware,Kicad,Pcbnew,9.0.6
; #@! TF.FileFunction,Plated,1,2,PTH
FMAT,2
METRIC
; #@! TA.AperFunction,Plated,PTH,ViaDrill
T1C0.400
; #@! TA.AperFunction,Plated,PTH,ComponentDrill
T2C0.750
; #@! TA.AperFunction,Plated,PTH,ComponentDrill
T3C0.800
; #@! TA.AperFunction,Plated,PTH,ComponentDrill
T4C1.000
%
G90
G05
T1
X69.469Y-83.566
X70.0Y-117.5
X72.5Y-120.0
X72.644Y-75.311
X75.0Y-52.5
X75.0Y-122.5
X75.184Y-75.184
X76.962Y-104.338
X77.47Y-85.884
X77.5Y-122.5
X77.5Y-125.0
X77.597Y-54.991
X77.597Y-59.055
X77.851Y-72.009
X80.0Y-52.5
X80.0Y-95.0
X80.0Y-97.5
X80.0Y-117.5
X80.0Y-127.5
X80.01Y-60.198
X80.137Y-72.009
X80.645Y-69.469
X82.423Y-59.055
X82.5Y-55.0
X82.5Y-97.5
X82.5Y-122.5
X82.629Y-95.0
X83.185Y-69.342
X83.947Y-79.629
X84.709Y-86.741
X85.0Y-52.5
X85.0Y-95.0
X85.0Y-117.5
X87.5Y-55.0
X87.5Y-127.5
X90.0Y-122.5
X90.932Y-75.565
X91.186Y-81.407
X92.5Y-117.5
X95.0Y-97.5
X95.0Y-100.0
X95.0Y-102.5
X95.0Y-112.5
X95.0Y-127.5
X97.5Y-75.0
X97.5Y-97.5
X97.5Y-100.0
X97.5Y-102.5
X97.5Y-122.5
X99.949Y-105.41
X100.0Y-77.5
X100.0Y-90.0
X100.0Y-97.5
X100.0Y-100.0
X100.0Y-102.5
X100.0Y-117.5
X102.5Y-75.0
X102.5Y-87.5
X102.5Y-90.0
X102.5Y-100.0
X102.5Y-102.5
X102.5Y-112.5
X102.5Y-127.5
X105.0Y-87.5
X105.0Y-90.0
X105.0Y-102.5
X105.0Y-105.0
X105.0Y-122.5
X107.5Y-87.5
X107.5Y-90.0
X107.5Y-117.5
X110.0Y-127.5
X112.5Y-122.5
X113.919Y-72.39
X115.0Y-52.5
X115.0Y-117.5
X115.951Y-71.12
X116.967Y-127.508
X117.5Y-55.0
X120.0Y-52.5
X120.0Y-57.5
X120.523Y-86.487
X120.777Y-72.39
X122.5Y-55.0
X125.0Y-52.5
X125.0Y-57.5
X125.0Y-127.5
X126.873Y-101.6
X127.0Y-72.263
X127.0Y-74.549
X127.5Y-55.0
X127.5Y-60.0
X127.889Y-98.679
X128.397Y-101.6
X129.54Y-98.679
X130.0Y-57.5
X130.0Y-62.5
X130.0Y-110.0
X130.749Y-92.34
X130.937Y-84.305
X131.826Y-127.508
X132.5Y-60.0
X132.5Y-65.0
X132.5Y-107.5
X132.5Y-110.0
X132.5Y-123.698
X132.5Y-125.0
X133.604Y-74.422
X134.379Y-88.659
X135.0Y-62.5
X135.0Y-102.5
X135.0Y-105.0
X135.0Y-107.5
X135.0Y-110.0
X137.5Y-102.5
X137.5Y-105.0
X137.5Y-107.5
X137.5Y-110.0
T2
X69.935Y-85.884
X69.935Y-87.884
X69.935Y-89.884
X76.629Y-90.085
X78.629Y-90.085
X80.629Y-90.085
X82.629Y-90.085
X118.761Y-123.359
X118.83Y-112.881
X118.83Y-114.881
X118.872Y-60.96
X118.872Y-62.96
X118.872Y-64.96
X118.872Y-66.96
X120.761Y-123.359
X126.016Y-123.444
X128.016Y-123.444
X135.89Y-70.993
X135.89Y-72.993
X136.017Y-82.677
X136.017Y-84.677
X136.017Y-86.677
T3
X88.566Y-105.365
X88.566Y-107.905
X88.566Y-110.445
X88.57Y-57.108
X88.57Y-59.648
X88.57Y-62.188
X88.57Y-64.728
X88.57Y-67.268
X88.57Y-69.808
X88.57Y-72.348
X88.57Y-74.888
X88.57Y-77.428
X88.57Y-79.968
X88.57Y-82.508
X88.57Y-85.048
X88.57Y-87.588
X88.57Y-90.128
X88.57Y-92.668
X88.57Y-95.208
X88.57Y-97.748
X88.57Y-100.288
X88.57Y-102.828
X111.43Y-57.108
X111.43Y-59.648
X111.43Y-62.188
X111.43Y-64.728
X111.43Y-67.268
X111.43Y-69.808
X111.43Y-72.348
X111.43Y-74.888
X111.43Y-77.428
X111.43Y-79.968
X111.43Y-82.508
X111.43Y-85.048
X111.43Y-87.588
X111.43Y-90.128
X111.43Y-92.668
X111.43Y-95.208
X111.43Y-97.748
X111.43Y-100.288
X111.43Y-102.828
X111.43Y-105.368
X111.43Y-107.908
X111.43Y-110.448
X114.422Y-99.047
X114.422Y-96.507
X114.422Y-101.588
X114.422Y-104.127
X122.042Y-96.507
X122.042Y-99.047
X122.042Y-104.127
X122.042Y-101.587
X123.693Y-73.025
X123.693Y-70.485
X123.693Y-75.565
X123.693Y-78.105
X124.333Y-96.139
X124.333Y-115.062
X126.873Y-115.087
X126.873Y-96.164
X131.313Y-70.485
X131.313Y-73.025
X131.313Y-78.105
X131.313Y-75.565
X135.128Y-115.062
X135.255Y-96.266
X137.668Y-115.062
X137.795Y-96.266
T4
X69.718Y-81.534
X70.993Y-60.325
X70.993Y-62.865
X70.993Y-65.405
X70.993Y-67.945
X70.993Y-70.485
X71.247Y-101.29
X71.247Y-103.83
X71.247Y-106.37
X71.247Y-108.91
X71.247Y-111.45
X72.258Y-81.534
X73.533Y-60.325
X73.533Y-62.865
X73.533Y-65.405
X73.533Y-67.945
X73.533Y-70.485
X73.787Y-101.29
X73.787Y-103.83
X73.787Y-106.37
X73.787Y-108.91
X73.787Y-111.45
X115.946Y-76.962
X115.946Y-79.502
X115.946Y-82.042
X118.486Y-76.962
X118.486Y-79.502
X118.486Y-82.042
M30
