%TF.GenerationSoftware,KiCad,Pcbnew,9.0.6*%
%TF.CreationDate,2026-01-05T15:15:04-05:00*%
%TF.ProjectId,OrganUniversalMCUboard,4f726761-6e55-46e6-9976-657273616c4d,rev?*%
%TF.SameCoordinates,Original*%
%TF.FileFunction,Paste,Top*%
%TF.FilePolarity,Positive*%
%FSLAX46Y46*%
G04 Gerber Fmt 4.6, Leading zero omitted, Abs format (unit mm)*
G04 Created by KiCad (PCBNEW 9.0.6) date 2026-01-05 15:15:04*
%MOMM*%
%LPD*%
G01*
G04 APERTURE LIST*
G04 Aperture macros list*
%AMRoundRect*
0 Rectangle with rounded corners*
0 $1 Rounding radius*
0 $2 $3 $4 $5 $6 $7 $8 $9 X,Y pos of 4 corners*
0 Add a 4 corners polygon primitive as box body*
4,1,4,$2,$3,$4,$5,$6,$7,$8,$9,$2,$3,0*
0 Add four circle primitives for the rounded corners*
1,1,$1+$1,$2,$3*
1,1,$1+$1,$4,$5*
1,1,$1+$1,$6,$7*
1,1,$1+$1,$8,$9*
0 Add four rect primitives between the rounded corners*
20,1,$1+$1,$2,$3,$4,$5,0*
20,1,$1+$1,$4,$5,$6,$7,0*
20,1,$1+$1,$6,$7,$8,$9,0*
20,1,$1+$1,$8,$9,$2,$3,0*%
G04 Aperture macros list end*
%ADD10RoundRect,0.200000X-0.200000X-0.275000X0.200000X-0.275000X0.200000X0.275000X-0.200000X0.275000X0*%
%ADD11RoundRect,0.250000X1.450000X-0.312500X1.450000X0.312500X-1.450000X0.312500X-1.450000X-0.312500X0*%
%ADD12RoundRect,0.150000X-0.587500X-0.150000X0.587500X-0.150000X0.587500X0.150000X-0.587500X0.150000X0*%
%ADD13RoundRect,0.200000X0.200000X0.275000X-0.200000X0.275000X-0.200000X-0.275000X0.200000X-0.275000X0*%
%ADD14RoundRect,0.200000X0.275000X-0.200000X0.275000X0.200000X-0.275000X0.200000X-0.275000X-0.200000X0*%
%ADD15RoundRect,0.218750X0.218750X0.256250X-0.218750X0.256250X-0.218750X-0.256250X0.218750X-0.256250X0*%
%ADD16RoundRect,0.200000X-0.275000X0.200000X-0.275000X-0.200000X0.275000X-0.200000X0.275000X0.200000X0*%
%ADD17RoundRect,0.250000X-0.262500X-0.450000X0.262500X-0.450000X0.262500X0.450000X-0.262500X0.450000X0*%
%ADD18RoundRect,0.150000X0.150000X-0.587500X0.150000X0.587500X-0.150000X0.587500X-0.150000X-0.587500X0*%
%ADD19RoundRect,0.225000X-0.250000X0.225000X-0.250000X-0.225000X0.250000X-0.225000X0.250000X0.225000X0*%
%ADD20RoundRect,0.250000X-0.650000X1.000000X-0.650000X-1.000000X0.650000X-1.000000X0.650000X1.000000X0*%
%ADD21RoundRect,0.150000X0.825000X0.150000X-0.825000X0.150000X-0.825000X-0.150000X0.825000X-0.150000X0*%
%ADD22RoundRect,0.225000X0.250000X-0.225000X0.250000X0.225000X-0.250000X0.225000X-0.250000X-0.225000X0*%
%ADD23RoundRect,0.250000X-1.000000X-0.650000X1.000000X-0.650000X1.000000X0.650000X-1.000000X0.650000X0*%
G04 APERTURE END LIST*
D10*
%TO.C,RS_LATCH1*%
X78169000Y-107315000D03*
X79819000Y-107315000D03*
%TD*%
D11*
%TO.C,F1*%
X133604001Y-121771499D03*
X133603999Y-117496501D03*
%TD*%
D12*
%TO.C,Q1*%
X130350500Y-91440000D03*
X128475500Y-92390000D03*
X128475500Y-90490000D03*
%TD*%
D13*
%TO.C,R2*%
X131001000Y-90170000D03*
X132651000Y-90170000D03*
%TD*%
D10*
%TO.C,R3*%
X126767000Y-88971751D03*
X125117000Y-88971751D03*
%TD*%
%TO.C,R7*%
X130577000Y-88717751D03*
X128927000Y-88717751D03*
%TD*%
D14*
%TO.C,R4*%
X126704000Y-92082751D03*
X126704000Y-90432751D03*
%TD*%
D15*
%TO.C,D2*%
X119405502Y-86995001D03*
X117830498Y-86994999D03*
%TD*%
D16*
%TO.C,RP_DIP3*%
X115824000Y-90615000D03*
X115824000Y-92265000D03*
%TD*%
D13*
%TO.C,R9*%
X129857002Y-84304752D03*
X128207002Y-84304752D03*
%TD*%
D10*
%TO.C,RS_MOSI1*%
X78296000Y-105862000D03*
X79946000Y-105862000D03*
%TD*%
%TO.C,RS_CLR1*%
X78296000Y-101290000D03*
X79946000Y-101290000D03*
%TD*%
D17*
%TO.C,RLED2*%
X114530500Y-85217000D03*
X116355500Y-85217000D03*
%TD*%
D18*
%TO.C,Q2*%
X127955001Y-82575256D03*
X129854998Y-82575254D03*
X128904999Y-80700253D03*
%TD*%
D13*
%TO.C,RP_SDA1*%
X123761000Y-65532000D03*
X122111000Y-65532000D03*
%TD*%
D19*
%TO.C,CD_U5*%
X82697998Y-79488994D03*
X82697998Y-81038996D03*
%TD*%
D20*
%TO.C,D1*%
X137668000Y-118142001D03*
X137668000Y-122142001D03*
%TD*%
D15*
%TO.C,D3*%
X119405502Y-85217001D03*
X117830498Y-85216999D03*
%TD*%
D14*
%TO.C,R8*%
X126365000Y-82843751D03*
X126365000Y-81193751D03*
%TD*%
D10*
%TO.C,R_TERM1*%
X70676000Y-78994000D03*
X72326000Y-78994000D03*
%TD*%
%TO.C,RS1*%
X75268999Y-84201000D03*
X76918999Y-84201000D03*
%TD*%
%TO.C,RS_BCLK1*%
X78155500Y-62851500D03*
X79805500Y-62851500D03*
%TD*%
%TO.C,R1*%
X125159001Y-84304754D03*
X126809001Y-84304754D03*
%TD*%
%TO.C,RS_DIN1*%
X78155500Y-65899500D03*
X79805500Y-65899500D03*
%TD*%
%TO.C,RS_OE_N1*%
X78296000Y-102814000D03*
X79946000Y-102814000D03*
%TD*%
D16*
%TO.C,RP_DIP2*%
X117348000Y-90615000D03*
X117348000Y-92265000D03*
%TD*%
D13*
%TO.C,R5*%
X137477000Y-78359000D03*
X135827000Y-78359000D03*
%TD*%
D21*
%TO.C,U5*%
X80332998Y-82325001D03*
X80333000Y-81054999D03*
X80333000Y-79784999D03*
X80333000Y-78514998D03*
X75383002Y-78514997D03*
X75383000Y-79784999D03*
X75383000Y-81054999D03*
X75383000Y-82325000D03*
%TD*%
D10*
%TO.C,RS_SCK1*%
X78296000Y-104338000D03*
X79946000Y-104338000D03*
%TD*%
D16*
%TO.C,RP_DIP1*%
X118872000Y-90615000D03*
X118872000Y-92265000D03*
%TD*%
D13*
%TO.C,RP_SCL1*%
X123761000Y-67056000D03*
X122111000Y-67056000D03*
%TD*%
D14*
%TO.C,RS_UART_RX1*%
X84984000Y-78168000D03*
X84984000Y-76518000D03*
%TD*%
D22*
%TO.C,CD_U2*%
X121666000Y-77610001D03*
X121666000Y-76059999D03*
%TD*%
D17*
%TO.C,RLED1*%
X114530500Y-87122000D03*
X116355500Y-87122000D03*
%TD*%
D16*
%TO.C,RS_UART_TX1*%
X84983998Y-82359998D03*
X84983998Y-84009998D03*
%TD*%
D10*
%TO.C,RS_LRCLK1*%
X78155500Y-64375500D03*
X79805500Y-64375500D03*
%TD*%
D16*
%TO.C,R6*%
X124841000Y-81193751D03*
X124841000Y-82843751D03*
%TD*%
%TO.C,RP_DIP4*%
X114300000Y-90615000D03*
X114300000Y-92265000D03*
%TD*%
D23*
%TO.C,D4*%
X134017000Y-92710000D03*
X138017000Y-92710000D03*
%TD*%
M02*
