%TF.GenerationSoftware,KiCad,Pcbnew,9.0.6*%
%TF.CreationDate,2026-01-05T15:15:04-05:00*%
%TF.ProjectId,OrganUniversalMCUboard,4f726761-6e55-46e6-9976-657273616c4d,rev?*%
%TF.SameCoordinates,Original*%
%TF.FileFunction,Legend,Bot*%
%TF.FilePolarity,Positive*%
%FSLAX46Y46*%
G04 Gerber Fmt 4.6, Leading zero omitted, Abs format (unit mm)*
G04 Created by KiCad (PCBNEW 9.0.6) date 2026-01-05 15:15:04*
%MOMM*%
%LPD*%
G01*
G04 APERTURE LIST*
G04 Aperture macros list*
%AMRoundRect*
0 Rectangle with rounded corners*
0 $1 Rounding radius*
0 $2 $3 $4 $5 $6 $7 $8 $9 X,Y pos of 4 corners*
0 Add a 4 corners polygon primitive as box body*
4,1,4,$2,$3,$4,$5,$6,$7,$8,$9,$2,$3,0*
0 Add four circle primitives for the rounded corners*
1,1,$1+$1,$2,$3*
1,1,$1+$1,$4,$5*
1,1,$1+$1,$6,$7*
1,1,$1+$1,$8,$9*
0 Add four rect primitives between the rounded corners*
20,1,$1+$1,$2,$3,$4,$5,0*
20,1,$1+$1,$4,$5,$6,$7,0*
20,1,$1+$1,$6,$7,$8,$9,0*
20,1,$1+$1,$8,$9,$2,$3,0*%
G04 Aperture macros list end*
%ADD10O,1.600000X1.600000*%
%ADD11R,1.600000X1.600000*%
%ADD12R,1.700000X1.700000*%
%ADD13C,1.700000*%
%ADD14RoundRect,0.250000X-0.625000X0.350000X-0.625000X-0.350000X0.625000X-0.350000X0.625000X0.350000X0*%
%ADD15O,1.750000X1.200000*%
%ADD16RoundRect,0.250000X-0.600000X-0.600000X0.600000X-0.600000X0.600000X0.600000X-0.600000X0.600000X0*%
%ADD17RoundRect,0.250000X0.625000X-0.350000X0.625000X0.350000X-0.625000X0.350000X-0.625000X-0.350000X0*%
%ADD18O,1.200000X1.750000*%
%ADD19RoundRect,0.250000X0.350000X0.625000X-0.350000X0.625000X-0.350000X-0.625000X0.350000X-0.625000X0*%
%ADD20RoundRect,0.250000X0.550000X0.550000X-0.550000X0.550000X-0.550000X-0.550000X0.550000X-0.550000X0*%
%ADD21C,1.600000*%
%ADD22R,2.000000X1.200000*%
%ADD23O,2.000000X1.200000*%
%ADD24C,2.700000*%
G04 APERTURE END LIST*
%LPC*%
D10*
%TO.C,A5V1*%
X124332999Y-96139002D03*
X126873000Y-96164401D03*
D11*
X137795000Y-96266001D03*
X135254997Y-96266001D03*
D10*
X124332999Y-115062001D03*
X126872999Y-115087402D03*
D11*
X137668000Y-115062001D03*
X135127999Y-115062001D03*
%TD*%
D12*
%TO.C,JP1*%
X69718000Y-81534000D03*
D13*
X72258001Y-81534001D03*
%TD*%
D14*
%TO.C,J9*%
X118872000Y-60960000D03*
D15*
X118872000Y-62960000D03*
X118872000Y-64960000D03*
X118872001Y-66960001D03*
%TD*%
D16*
%TO.C,J7*%
X70993000Y-60325000D03*
D13*
X73533000Y-60325000D03*
X70993000Y-62865000D03*
X73533000Y-62865000D03*
X70993000Y-65405000D03*
X73533000Y-65405000D03*
X70993000Y-67945000D03*
X73533000Y-67945000D03*
X70993000Y-70485000D03*
X73533000Y-70485000D03*
%TD*%
D17*
%TO.C,J6*%
X69935000Y-89884000D03*
D15*
X69935000Y-87884000D03*
X69935000Y-85884000D03*
%TD*%
D14*
%TO.C,J4*%
X136017000Y-82677000D03*
D15*
X136017000Y-84677000D03*
X136017000Y-86677000D03*
%TD*%
D14*
%TO.C,J3*%
X135890000Y-70993000D03*
D15*
X135890000Y-72993000D03*
%TD*%
D18*
%TO.C,J1*%
X126016000Y-123444000D03*
D19*
X128016000Y-123444000D03*
%TD*%
D20*
%TO.C,U2*%
X131312999Y-78105000D03*
D21*
X131313000Y-75564997D03*
X131312999Y-73025000D03*
X131312999Y-70485000D03*
X123692999Y-70485000D03*
X123692998Y-73025000D03*
X123692999Y-75565001D03*
X123692999Y-78105000D03*
%TD*%
D19*
%TO.C,J2*%
X120761001Y-123359000D03*
D18*
X118761001Y-123359000D03*
%TD*%
D19*
%TO.C,J5*%
X82629001Y-90084999D03*
D18*
X80629001Y-90084999D03*
X78629001Y-90084999D03*
X76629000Y-90085000D03*
%TD*%
D17*
%TO.C,J10*%
X118830000Y-114880900D03*
D15*
X118830000Y-112880900D03*
%TD*%
D22*
%TO.C,U1*%
X88570000Y-57107920D03*
D23*
X88570000Y-59647920D03*
X88570000Y-62187920D03*
X88570000Y-64727920D03*
X88570000Y-67267920D03*
X88570000Y-69807920D03*
X88570000Y-72347920D03*
X88570000Y-74887920D03*
X88570000Y-77427920D03*
X88570000Y-79967920D03*
X88570000Y-82507920D03*
X88570000Y-85047920D03*
X88570000Y-87587920D03*
X88570000Y-90127920D03*
X88570000Y-92667920D03*
X88570000Y-95207920D03*
X88570000Y-97747920D03*
X88570000Y-100287920D03*
X88570000Y-102827920D03*
X88566320Y-105365200D03*
X88566320Y-107905200D03*
X88566320Y-110445200D03*
X111430000Y-110447920D03*
X111430000Y-107907920D03*
X111430000Y-105367920D03*
X111430000Y-102827920D03*
X111430000Y-100287920D03*
X111430000Y-97747920D03*
X111430000Y-95207920D03*
X111430000Y-92667920D03*
X111430000Y-90127920D03*
X111430000Y-87587920D03*
X111430000Y-85047920D03*
X111430000Y-82507920D03*
X111430000Y-79967920D03*
X111430000Y-77427920D03*
X111430000Y-74887920D03*
X111430000Y-72347920D03*
X111430000Y-69807920D03*
X111430000Y-67267920D03*
X111430000Y-64727920D03*
X111430000Y-62187920D03*
X111430000Y-59647920D03*
X111430000Y-57107920D03*
%TD*%
D12*
%TO.C,J11*%
X115946000Y-76962000D03*
D13*
X118486000Y-76962000D03*
X115946000Y-79502000D03*
X118486000Y-79502000D03*
X115946000Y-82042000D03*
X118486000Y-82042000D03*
%TD*%
D16*
%TO.C,J8*%
X71247000Y-101290000D03*
D13*
X73787000Y-101290000D03*
X71247000Y-103830000D03*
X73787000Y-103830000D03*
X71247000Y-106370000D03*
X73787000Y-106370000D03*
X71247000Y-108910000D03*
X73787000Y-108910000D03*
X71247000Y-111450000D03*
X73787000Y-111450000D03*
%TD*%
D20*
%TO.C,SW1*%
X122042000Y-104127500D03*
D21*
X122042001Y-101587497D03*
X122042000Y-99047500D03*
X122042000Y-96507500D03*
X114422000Y-96507500D03*
X114421998Y-99047500D03*
X114422000Y-101587501D03*
X114422000Y-104127500D03*
%TD*%
D24*
%TO.C,REF\u002A\u002A*%
X70000000Y-126365000D03*
%TD*%
%TO.C,REF\u002A\u002A*%
X137000000Y-126365000D03*
%TD*%
%TO.C,REF\u002A\u002A*%
X137000000Y-52705000D03*
%TD*%
%TO.C,REF\u002A\u002A*%
X70000000Y-52705000D03*
%TD*%
%LPD*%
M02*
